<svg width="14" height="24" viewBox="0 0 14 24" fill="none" xmlns="http://www.w3.org/2000/svg">
<path d="M0.2564 23.282L0 21.118L3.6205 11.1385C3.8769 11.3727 4.1504 11.5654 4.441 11.7167C4.73158 11.868 5.03926 11.9863 5.36403 12.0718L1.85123 21.7538L0.2564 23.282ZM13.7435 23.282L12.1487 21.7538L8.6359 12.0718C8.96068 11.9863 9.26836 11.868 9.55893 11.7167C9.84953 11.5654 10.123 11.3727 10.3794 11.1385L13.9999 21.118L13.7435 23.282ZM6.99997 10.3333C5.98288 10.3333 5.1175 9.97647 4.40383 9.2628C3.69017 8.54913 3.33333 7.68375 3.33333 6.66667C3.33333 5.8 3.59401 5.05129 4.11537 4.42053C4.63674 3.78976 5.26496 3.3795 6 3.18977V0H7.99993V3.18977C8.73498 3.3795 9.36319 3.78976 9.88457 4.42053C10.4059 5.05129 10.6666 5.8 10.6666 6.66667C10.6666 7.68375 10.3098 8.54913 9.5961 9.2628C8.88243 9.97647 8.01706 10.3333 6.99997 10.3333ZM6.99997 8.33337C7.46321 8.33337 7.85681 8.1714 8.18077 7.84747C8.5047 7.52351 8.66667 7.12991 8.66667 6.66667C8.66667 6.20342 8.5047 5.80982 8.18077 5.48587C7.85681 5.16193 7.46321 4.99997 6.99997 4.99997C6.53672 4.99997 6.14312 5.16193 5.81917 5.48587C5.49523 5.80982 5.33327 6.20342 5.33327 6.66667C5.33327 7.12991 5.49523 7.52351 5.81917 7.84747C6.14312 8.1714 6.53672 8.33337 6.99997 8.33337Z" fill="white"/>
</svg>
