<svg width="119" height="74" viewBox="0 0 119 74" fill="none" xmlns="http://www.w3.org/2000/svg">
<path d="M5.40719 49C4.68719 49 4.06052 48.76 3.52719 48.28C2.99385 47.8 2.72719 47.2267 2.72719 46.56V23.44C2.72719 22.7733 2.98052 22.2 3.48719 21.72C4.02052 21.24 4.66052 21 5.40719 21H16.1672C18.7272 21 20.7672 21.72 22.2872 23.16C23.8339 24.5733 24.6072 26.48 24.6072 28.88C24.6072 30.0267 24.3005 31.12 23.6872 32.16C23.0739 33.1733 22.2605 33.96 21.2472 34.52V34.64C22.6339 35.12 23.7272 35.9067 24.5272 37C25.3539 38.0933 25.7672 39.3467 25.7672 40.76C25.7672 42.36 25.3939 43.7867 24.6472 45.04C23.9005 46.2933 22.8605 47.2667 21.5272 47.96C20.1939 48.6533 18.6739 49 16.9672 49H5.40719ZM16.0872 32.76C16.9672 32.76 17.7139 32.4 18.3272 31.68C18.9672 30.96 19.2872 30.0933 19.2872 29.08C19.2872 27.9867 18.9939 27.12 18.4072 26.48C17.8472 25.84 17.0739 25.52 16.0872 25.52H7.92719V32.76H16.0872ZM16.8872 44.48C17.9805 44.48 18.8472 44.16 19.4872 43.52C20.1272 42.8533 20.4472 41.9467 20.4472 40.8C20.4472 39.68 20.1272 38.8133 19.4872 38.2C18.8739 37.56 18.0072 37.24 16.8872 37.24H7.92719V44.48H16.8872ZM36.2013 49.36C33.9879 49.36 32.3079 48.7333 31.1613 47.48C30.0413 46.2 29.4813 44.5867 29.4813 42.64V23.68C29.4813 22.5867 29.8813 21.8133 30.6813 21.36C31.5079 20.88 32.7746 20.64 34.4813 20.64V42.44C34.4813 43.3467 34.6813 44.0133 35.0813 44.44C35.4813 44.84 36.1213 45.04 37.0013 45.04C37.9879 45.04 38.9746 44.7867 39.9613 44.28C40.2279 44.52 40.4279 44.8267 40.5613 45.2C40.7213 45.5467 40.8013 45.9067 40.8013 46.28C40.8013 47.08 40.4013 47.8 39.6013 48.44C38.8013 49.0533 37.6679 49.36 36.2013 49.36ZM61.9706 45.48C61.9706 46.7333 61.5706 47.6933 60.7706 48.36C59.9973 49.0267 58.8106 49.36 57.2106 49.36V46.96C57.5573 46.56 57.8773 46.12 58.1706 45.64L57.9306 45.48C56.224 48.0667 53.9306 49.36 51.0506 49.36C49.6906 49.36 48.464 49.0533 47.3706 48.44C46.304 47.8 45.4506 46.92 44.8106 45.8C44.1973 44.68 43.8906 43.4133 43.8906 42V31.68C43.8906 30.5867 44.2906 29.8133 45.0906 29.36C45.9173 28.88 47.1706 28.64 48.8506 28.64V41.64C48.8506 42.68 49.1706 43.5067 49.8106 44.12C50.4506 44.7333 51.3706 45.04 52.5706 45.04C53.904 45.04 54.9706 44.6267 55.7706 43.8C56.5973 42.9467 57.0106 41.8933 57.0106 40.64V31.68C57.0106 30.5867 57.4106 29.8133 58.2106 29.36C59.0106 28.88 60.264 28.64 61.9706 28.64V45.48ZM69.9925 26.76C69.0325 26.76 68.2325 26.48 67.5925 25.92C66.9792 25.3333 66.6725 24.5867 66.6725 23.68C66.6725 22.8 66.9792 22.08 67.5925 21.52C68.2325 20.9333 69.0325 20.64 69.9925 20.64C70.9525 20.64 71.7392 20.9333 72.3525 21.52C72.9925 22.08 73.3125 22.8 73.3125 23.68C73.3125 24.5867 72.9925 25.3333 72.3525 25.92C71.7392 26.48 70.9525 26.76 69.9925 26.76ZM67.4725 31.68C67.4725 30.5867 67.8858 29.8133 68.7125 29.36C69.5392 28.88 70.7925 28.64 72.4725 28.64V46.32C72.4725 47.3867 72.0592 48.16 71.2325 48.64C70.4058 49.12 69.1525 49.36 67.4725 49.36V31.68ZM86.6397 49.36C84.9064 49.36 83.373 49.0533 82.0397 48.44C80.7064 47.8 79.6664 46.92 78.9197 45.8C78.173 44.68 77.7997 43.4133 77.7997 42V36.4C77.7997 34.88 78.173 33.5333 78.9197 32.36C79.6664 31.1867 80.7064 30.28 82.0397 29.64C83.373 28.9733 84.893 28.64 86.5997 28.64C88.1997 28.64 89.613 28.8667 90.8397 29.32C92.093 29.7733 93.0664 30.4133 93.7597 31.24C94.453 32.04 94.7997 32.9733 94.7997 34.04C94.7997 34.8667 94.4797 35.5333 93.8397 36.04C93.1997 36.5467 92.3597 36.8 91.3197 36.8C91.0264 36.8 90.813 36.7867 90.6797 36.76C90.6797 35.6133 90.3064 34.6933 89.5597 34C88.8397 33.3067 87.893 32.96 86.7197 32.96C85.5464 32.96 84.5864 33.2933 83.8397 33.96C83.1197 34.6267 82.7597 35.5067 82.7597 36.6V41.64C82.7597 42.6533 83.133 43.48 83.8797 44.12C84.6264 44.7333 85.5864 45.04 86.7597 45.04C87.933 45.04 88.893 44.6933 89.6397 44C90.3864 43.28 90.7597 42.3733 90.7597 41.28C90.9197 41.2533 91.1464 41.24 91.4397 41.24C92.4797 41.24 93.3197 41.48 93.9597 41.96C94.5997 42.44 94.9197 43.0933 94.9197 43.92C94.9197 44.9867 94.5597 45.9333 93.8397 46.76C93.1464 47.56 92.173 48.2 90.9197 48.68C89.6664 49.1333 88.2397 49.36 86.6397 49.36ZM107.463 49.36C105.809 49.36 104.303 49.04 102.943 48.4C101.583 47.7333 100.503 46.84 99.7028 45.72C98.9028 44.5733 98.5028 43.2933 98.5028 41.88V36.56C98.5028 35.0667 98.9161 33.72 99.7428 32.52C100.569 31.32 101.663 30.3733 103.023 29.68C104.409 28.9867 105.903 28.64 107.503 28.64C109.076 28.64 110.516 28.9733 111.823 29.64C113.156 30.28 114.209 31.1867 114.983 32.36C115.756 33.5067 116.143 34.8267 116.143 36.32V38.56C116.143 39.1467 115.916 39.64 115.463 40.04C115.036 40.44 114.489 40.64 113.823 40.64H103.343V41.52C103.343 42.6667 103.689 43.6 104.383 44.32C105.076 45.04 106.116 45.4 107.503 45.4C108.836 45.4 109.823 45.1067 110.463 44.52C111.129 43.9333 111.463 43.1733 111.463 42.24C111.943 42.1867 112.276 42.16 112.463 42.16C113.449 42.16 114.223 42.3867 114.783 42.84C115.343 43.2667 115.623 43.88 115.623 44.68C115.623 45.4533 115.263 46.2 114.543 46.92C113.823 47.64 112.836 48.2267 111.583 48.68C110.329 49.1333 108.956 49.36 107.463 49.36ZM111.623 37.08V36.32C111.623 35.2 111.236 34.2933 110.463 33.6C109.689 32.9067 108.689 32.56 107.463 32.56C106.236 32.56 105.236 32.9067 104.463 33.6C103.716 34.2667 103.343 35.1733 103.343 36.32V37.08H111.623Z" fill="white"/>
<path d="M8.10151 57.144V69H6.50551V57.144H2.28751V55.738H12.3195V57.144H8.10151ZM17.0854 69.228C16.4141 69.228 15.8061 69.1077 15.2614 68.867C14.7294 68.6263 14.2671 68.2843 13.8744 67.841C13.4944 67.385 13.1967 66.8467 12.9814 66.226C12.7787 65.5927 12.6774 64.8833 12.6774 64.098C12.6774 63.3253 12.7787 62.6223 12.9814 61.989C13.1967 61.3557 13.4944 60.8173 13.8744 60.374C14.2671 59.918 14.7294 59.5697 15.2614 59.329C15.8061 59.0883 16.4141 58.968 17.0854 58.968C17.7441 58.968 18.3331 59.0883 18.8524 59.329C19.3717 59.5697 19.8151 59.9053 20.1824 60.336C20.5497 60.754 20.8284 61.2543 21.0184 61.837C21.2211 62.4197 21.3224 63.0593 21.3224 63.756V64.478H14.2734V64.934C14.2734 65.352 14.3367 65.7447 14.4634 66.112C14.6027 66.4667 14.7927 66.777 15.0334 67.043C15.2867 67.309 15.5907 67.518 15.9454 67.67C16.3127 67.822 16.7244 67.898 17.1804 67.898C17.8011 67.898 18.3394 67.7523 18.7954 67.461C19.2641 67.1697 19.6251 66.7517 19.8784 66.207L20.9614 66.986C20.6447 67.6573 20.1507 68.202 19.4794 68.62C18.8081 69.0253 18.0101 69.228 17.0854 69.228ZM17.0854 60.241C16.6674 60.241 16.2874 60.317 15.9454 60.469C15.6034 60.6083 15.3057 60.811 15.0524 61.077C14.8117 61.343 14.6217 61.6597 14.4824 62.027C14.3431 62.3817 14.2734 62.7743 14.2734 63.205V63.338H19.6884V63.129C19.6884 62.255 19.4477 61.5583 18.9664 61.039C18.4977 60.507 17.8707 60.241 17.0854 60.241ZM27.7601 69.228C27.0761 69.228 26.4618 69.1077 25.9171 68.867C25.3725 68.6263 24.9101 68.2843 24.5301 67.841C24.1628 67.3977 23.8778 66.8593 23.6751 66.226C23.4851 65.5927 23.3901 64.8833 23.3901 64.098C23.3901 63.3127 23.4851 62.6033 23.6751 61.97C23.8778 61.3367 24.1628 60.7983 24.5301 60.355C24.9101 59.9117 25.3725 59.5697 25.9171 59.329C26.4618 59.0883 27.0761 58.968 27.7601 58.968C28.7355 58.968 29.5145 59.1833 30.0971 59.614C30.6925 60.032 31.1358 60.583 31.4271 61.267L30.1541 61.913C29.9768 61.4063 29.6855 61.0137 29.2801 60.735C28.8748 60.4563 28.3681 60.317 27.7601 60.317C27.3041 60.317 26.9051 60.393 26.5631 60.545C26.2211 60.6843 25.9361 60.887 25.7081 61.153C25.4801 61.4063 25.3091 61.7167 25.1951 62.084C25.0811 62.4387 25.0241 62.8313 25.0241 63.262V64.934C25.0241 65.7953 25.2521 66.5047 25.7081 67.062C26.1768 67.6067 26.8608 67.879 27.7601 67.879C28.9888 67.879 29.8755 67.309 30.4201 66.169L31.5221 66.91C31.2055 67.6193 30.7305 68.183 30.0971 68.601C29.4765 69.019 28.6975 69.228 27.7601 69.228ZM33.9528 54.94H35.4728V60.792H35.5488C35.7895 60.2347 36.1251 59.7913 36.5558 59.462C36.9991 59.1327 37.5881 58.968 38.3228 58.968C39.3361 58.968 40.1341 59.2973 40.7168 59.956C41.3121 60.602 41.6098 61.5203 41.6098 62.711V69H40.0898V62.977C40.0898 61.2163 39.3488 60.336 37.8668 60.336C37.5628 60.336 37.2651 60.374 36.9738 60.45C36.6951 60.526 36.4418 60.64 36.2138 60.792C35.9858 60.944 35.8021 61.1403 35.6628 61.381C35.5361 61.609 35.4728 61.8813 35.4728 62.198V69H33.9528V54.94ZM45.0366 69V59.196H46.5566V60.792H46.6326C46.8733 60.2347 47.209 59.7913 47.6396 59.462C48.083 59.1327 48.672 58.968 49.4066 58.968C50.42 58.968 51.218 59.2973 51.8006 59.956C52.396 60.602 52.6936 61.5203 52.6936 62.711V69H51.1736V62.977C51.1736 61.2163 50.4326 60.336 48.9506 60.336C48.6466 60.336 48.349 60.374 48.0576 60.45C47.779 60.526 47.5256 60.64 47.2976 60.792C47.0696 60.944 46.886 61.1403 46.7466 61.381C46.62 61.609 46.5566 61.8813 46.5566 62.198V69H45.0366ZM59.8254 69.228C59.1668 69.228 58.5651 69.1077 58.0204 68.867C57.4758 68.6263 57.0071 68.2843 56.6144 67.841C56.2344 67.385 55.9368 66.8467 55.7214 66.226C55.5061 65.5927 55.3984 64.8833 55.3984 64.098C55.3984 63.3253 55.5061 62.6223 55.7214 61.989C55.9368 61.3557 56.2344 60.8173 56.6144 60.374C57.0071 59.918 57.4758 59.5697 58.0204 59.329C58.5651 59.0883 59.1668 58.968 59.8254 58.968C60.4841 58.968 61.0794 59.0883 61.6114 59.329C62.1561 59.5697 62.6248 59.918 63.0174 60.374C63.4101 60.8173 63.7141 61.3557 63.9294 61.989C64.1448 62.6223 64.2524 63.3253 64.2524 64.098C64.2524 64.8833 64.1448 65.5927 63.9294 66.226C63.7141 66.8467 63.4101 67.385 63.0174 67.841C62.6248 68.2843 62.1561 68.6263 61.6114 68.867C61.0794 69.1077 60.4841 69.228 59.8254 69.228ZM59.8254 67.879C60.6488 67.879 61.3201 67.6257 61.8394 67.119C62.3588 66.6123 62.6184 65.8397 62.6184 64.801V63.395C62.6184 62.3563 62.3588 61.5837 61.8394 61.077C61.3201 60.5703 60.6488 60.317 59.8254 60.317C59.0021 60.317 58.3308 60.5703 57.8114 61.077C57.2921 61.5837 57.0324 62.3563 57.0324 63.395V64.801C57.0324 65.8397 57.2921 66.6123 57.8114 67.119C58.3308 67.6257 59.0021 67.879 59.8254 67.879ZM68.6523 69C68.1203 69 67.715 68.8543 67.4363 68.563C67.1703 68.259 67.0373 67.879 67.0373 67.423V54.94H68.5573V67.67H70.0013V69H68.6523ZM76.204 69.228C75.5454 69.228 74.9437 69.1077 74.399 68.867C73.8544 68.6263 73.3857 68.2843 72.993 67.841C72.613 67.385 72.3154 66.8467 72.1 66.226C71.8847 65.5927 71.777 64.8833 71.777 64.098C71.777 63.3253 71.8847 62.6223 72.1 61.989C72.3154 61.3557 72.613 60.8173 72.993 60.374C73.3857 59.918 73.8544 59.5697 74.399 59.329C74.9437 59.0883 75.5454 58.968 76.204 58.968C76.8627 58.968 77.458 59.0883 77.99 59.329C78.5347 59.5697 79.0034 59.918 79.396 60.374C79.7887 60.8173 80.0927 61.3557 80.308 61.989C80.5234 62.6223 80.631 63.3253 80.631 64.098C80.631 64.8833 80.5234 65.5927 80.308 66.226C80.0927 66.8467 79.7887 67.385 79.396 67.841C79.0034 68.2843 78.5347 68.6263 77.99 68.867C77.458 69.1077 76.8627 69.228 76.204 69.228ZM76.204 67.879C77.0274 67.879 77.6987 67.6257 78.218 67.119C78.7374 66.6123 78.997 65.8397 78.997 64.801V63.395C78.997 62.3563 78.7374 61.5837 78.218 61.077C77.6987 60.5703 77.0274 60.317 76.204 60.317C75.3807 60.317 74.7094 60.5703 74.19 61.077C73.6707 61.5837 73.411 62.3563 73.411 63.395V64.801C73.411 65.8397 73.6707 66.6123 74.19 67.119C74.7094 67.6257 75.3807 67.879 76.204 67.879ZM91.6809 70.083C91.6809 71.0963 91.2819 71.8373 90.4839 72.306C89.6985 72.7873 88.5142 73.028 86.9309 73.028C85.3982 73.028 84.2962 72.819 83.6249 72.401C82.9535 71.983 82.6179 71.3877 82.6179 70.615C82.6179 70.083 82.7572 69.665 83.0359 69.361C83.3145 69.0697 83.6945 68.8543 84.1759 68.715V68.506C83.5932 68.2273 83.3019 67.7713 83.3019 67.138C83.3019 66.644 83.4602 66.2703 83.7769 66.017C84.0935 65.751 84.4989 65.5547 84.9929 65.428V65.352C84.4102 65.0733 83.9542 64.6743 83.6249 64.155C83.3082 63.6357 83.1499 63.034 83.1499 62.35C83.1499 61.856 83.2385 61.4 83.4159 60.982C83.5932 60.564 83.8402 60.2093 84.1569 59.918C84.4862 59.614 84.8725 59.3797 85.3159 59.215C85.7719 59.0503 86.2785 58.968 86.8359 58.968C87.5325 58.968 88.1532 59.0947 88.6979 59.348V59.177C88.6979 58.797 88.7865 58.4867 88.9639 58.246C89.1412 57.9927 89.4325 57.866 89.8379 57.866H91.3009V59.196H89.4389V59.823C89.7935 60.127 90.0659 60.4943 90.2559 60.925C90.4585 61.343 90.5599 61.818 90.5599 62.35C90.5599 62.844 90.4712 63.3 90.2939 63.718C90.1165 64.136 89.8632 64.497 89.5339 64.801C89.2172 65.0923 88.8309 65.3203 88.3749 65.485C87.9189 65.6497 87.4122 65.732 86.8549 65.732C86.5382 65.732 86.2215 65.7003 85.9049 65.637C85.5755 65.7257 85.2779 65.8587 85.0119 66.036C84.7459 66.2007 84.6129 66.435 84.6129 66.739C84.6129 67.0303 84.7522 67.2267 85.0309 67.328C85.3095 67.4293 85.6705 67.48 86.1139 67.48H88.2039C89.4199 67.48 90.3002 67.7143 90.8449 68.183C91.4022 68.639 91.6809 69.2723 91.6809 70.083ZM90.2559 70.197C90.2559 69.8043 90.1039 69.4877 89.7999 69.247C89.5085 69.019 88.9829 68.905 88.2229 68.905H84.9549C84.3469 69.1837 84.0429 69.627 84.0429 70.235C84.0429 70.6657 84.2012 71.033 84.5179 71.337C84.8472 71.641 85.3982 71.793 86.1709 71.793H87.5769C88.4255 71.793 89.0842 71.66 89.5529 71.394C90.0215 71.128 90.2559 70.729 90.2559 70.197ZM86.8549 64.516C87.5009 64.516 88.0139 64.364 88.3939 64.06C88.7739 63.7433 88.9639 63.262 88.9639 62.616V62.084C88.9639 61.438 88.7739 60.963 88.3939 60.659C88.0139 60.3423 87.5009 60.184 86.8549 60.184C86.2089 60.184 85.6959 60.3423 85.3159 60.659C84.9359 60.963 84.7459 61.438 84.7459 62.084V62.616C84.7459 63.262 84.9359 63.7433 85.3159 64.06C85.6959 64.364 86.2089 64.516 86.8549 64.516ZM94.499 56.897C94.1696 56.897 93.929 56.821 93.777 56.669C93.6376 56.5043 93.568 56.2953 93.568 56.042V55.795C93.568 55.5417 93.6376 55.339 93.777 55.187C93.929 55.0223 94.1696 54.94 94.499 54.94C94.8283 54.94 95.0626 55.0223 95.202 55.187C95.354 55.339 95.43 55.5417 95.43 55.795V56.042C95.43 56.2953 95.354 56.5043 95.202 56.669C95.0626 56.821 94.8283 56.897 94.499 56.897ZM93.739 59.196H95.259V69H93.739V59.196ZM102.46 69.228C101.789 69.228 101.181 69.1077 100.636 68.867C100.104 68.6263 99.6416 68.2843 99.249 67.841C98.869 67.385 98.5713 66.8467 98.356 66.226C98.1533 65.5927 98.052 64.8833 98.052 64.098C98.052 63.3253 98.1533 62.6223 98.356 61.989C98.5713 61.3557 98.869 60.8173 99.249 60.374C99.6416 59.918 100.104 59.5697 100.636 59.329C101.181 59.0883 101.789 58.968 102.46 58.968C103.119 58.968 103.708 59.0883 104.227 59.329C104.746 59.5697 105.19 59.9053 105.557 60.336C105.924 60.754 106.203 61.2543 106.393 61.837C106.596 62.4197 106.697 63.0593 106.697 63.756V64.478H99.648V64.934C99.648 65.352 99.7113 65.7447 99.838 66.112C99.9773 66.4667 100.167 66.777 100.408 67.043C100.661 67.309 100.965 67.518 101.32 67.67C101.687 67.822 102.099 67.898 102.555 67.898C103.176 67.898 103.714 67.7523 104.17 67.461C104.639 67.1697 105 66.7517 105.253 66.207L106.336 66.986C106.019 67.6573 105.525 68.202 104.854 68.62C104.183 69.0253 103.385 69.228 102.46 69.228ZM102.46 60.241C102.042 60.241 101.662 60.317 101.32 60.469C100.978 60.6083 100.68 60.811 100.427 61.077C100.186 61.343 99.9963 61.6597 99.857 62.027C99.7176 62.3817 99.648 62.7743 99.648 63.205V63.338H105.063V63.129C105.063 62.255 104.822 61.5583 104.341 61.039C103.872 60.507 103.245 60.241 102.46 60.241ZM112.432 69.228C111.52 69.228 110.753 69.057 110.133 68.715C109.525 68.3603 108.999 67.8917 108.556 67.309L109.639 66.435C110.019 66.9163 110.443 67.29 110.912 67.556C111.38 67.8093 111.925 67.936 112.546 67.936C113.192 67.936 113.692 67.7967 114.047 67.518C114.414 67.2393 114.598 66.8467 114.598 66.34C114.598 65.96 114.471 65.637 114.218 65.371C113.977 65.0923 113.534 64.9023 112.888 64.801L112.109 64.687C111.653 64.6237 111.235 64.5287 110.855 64.402C110.475 64.2627 110.139 64.0853 109.848 63.87C109.569 63.642 109.347 63.3633 109.183 63.034C109.031 62.7047 108.955 62.312 108.955 61.856C108.955 61.3747 109.043 60.9567 109.221 60.602C109.398 60.2347 109.639 59.9307 109.943 59.69C110.259 59.4493 110.633 59.272 111.064 59.158C111.494 59.0313 111.957 58.968 112.451 58.968C113.249 58.968 113.914 59.1073 114.446 59.386C114.99 59.6647 115.465 60.051 115.871 60.545L114.864 61.457C114.648 61.153 114.332 60.8807 113.914 60.64C113.496 60.3867 112.97 60.26 112.337 60.26C111.703 60.26 111.222 60.3993 110.893 60.678C110.576 60.944 110.418 61.3113 110.418 61.78C110.418 62.2613 110.576 62.6097 110.893 62.825C111.222 63.0403 111.691 63.1987 112.299 63.3L113.059 63.414C114.148 63.5787 114.921 63.8953 115.377 64.364C115.833 64.82 116.061 65.4217 116.061 66.169C116.061 67.119 115.738 67.8663 115.092 68.411C114.446 68.9557 113.559 69.228 112.432 69.228Z" fill="white"/>
<path d="M3.97541 10V2.72727H6.43279C7.00334 2.72727 7.46973 2.83026 7.83194 3.03622C8.19653 3.23982 8.46641 3.51562 8.6416 3.86364C8.81679 4.21165 8.90439 4.59991 8.90439 5.02841C8.90439 5.45691 8.81679 5.84635 8.6416 6.19673C8.46878 6.54711 8.20126 6.82647 7.83904 7.0348C7.47683 7.24077 7.01281 7.34375 6.447 7.34375H4.68564V6.5625H6.41859C6.80922 6.5625 7.1229 6.49503 7.35964 6.36009C7.59638 6.22514 7.76802 6.04285 7.87456 5.81321C7.98346 5.5812 8.03791 5.3196 8.03791 5.02841C8.03791 4.73722 7.98346 4.4768 7.87456 4.24716C7.76802 4.01752 7.5952 3.83759 7.35609 3.70739C7.11698 3.57481 6.79975 3.50852 6.40439 3.50852H4.85609V10H3.97541ZM12.3667 10.1136C11.8743 10.1136 11.4423 9.99645 11.0706 9.76207C10.7013 9.5277 10.4124 9.19981 10.2041 8.77841C9.99814 8.35701 9.89515 7.86458 9.89515 7.30114C9.89515 6.73295 9.99814 6.23698 10.2041 5.81321C10.4124 5.38944 10.7013 5.06037 11.0706 4.82599C11.4423 4.59162 11.8743 4.47443 12.3667 4.47443C12.8592 4.47443 13.29 4.59162 13.6594 4.82599C14.031 5.06037 14.3199 5.38944 14.5258 5.81321C14.7342 6.23698 14.8383 6.73295 14.8383 7.30114C14.8383 7.86458 14.7342 8.35701 14.5258 8.77841C14.3199 9.19981 14.031 9.5277 13.6594 9.76207C13.29 9.99645 12.8592 10.1136 12.3667 10.1136ZM12.3667 9.3608C12.7408 9.3608 13.0486 9.26491 13.29 9.07315C13.5315 8.88139 13.7103 8.62926 13.8263 8.31676C13.9423 8.00426 14.0003 7.66572 14.0003 7.30114C14.0003 6.93655 13.9423 6.59683 13.8263 6.28196C13.7103 5.96709 13.5315 5.71259 13.29 5.51847C13.0486 5.32434 12.7408 5.22727 12.3667 5.22727C11.9927 5.22727 11.6849 5.32434 11.4434 5.51847C11.202 5.71259 11.0232 5.96709 10.9072 6.28196C10.7912 6.59683 10.7332 6.93655 10.7332 7.30114C10.7332 7.66572 10.7912 8.00426 10.9072 8.31676C11.0232 8.62926 11.202 8.88139 11.4434 9.07315C11.6849 9.26491 11.9927 9.3608 12.3667 9.3608ZM17.1679 10L15.5059 4.54545H16.3866L17.5656 8.72159H17.6224L18.7872 4.54545H19.6821L20.8327 8.70739H20.8895L22.0684 4.54545H22.9491L21.2872 10H20.4633L19.2702 5.80966H19.1849L17.9917 10H17.1679ZM26.1585 10.1136C25.6329 10.1136 25.1795 9.99763 24.7984 9.76562C24.4196 9.53125 24.1272 9.20455 23.9213 8.78551C23.7177 8.36411 23.6159 7.87405 23.6159 7.31534C23.6159 6.75663 23.7177 6.2642 23.9213 5.83807C24.1272 5.40956 24.4137 5.07576 24.7806 4.83665C25.1499 4.59517 25.5808 4.47443 26.0732 4.47443C26.3573 4.47443 26.6379 4.52178 26.9149 4.61648C27.1919 4.71117 27.444 4.86506 27.6713 5.07812C27.8985 5.28883 28.0796 5.56818 28.2146 5.91619C28.3495 6.2642 28.417 6.69271 28.417 7.2017V7.55682H24.2124V6.83239H27.5647C27.5647 6.52462 27.5032 6.25 27.3801 6.00852C27.2593 5.76705 27.0865 5.57647 26.8616 5.43679C26.6391 5.29711 26.3763 5.22727 26.0732 5.22727C25.7394 5.22727 25.4506 5.31013 25.2068 5.47585C24.9653 5.6392 24.7794 5.85227 24.6492 6.11506C24.519 6.37784 24.4539 6.65956 24.4539 6.96023V7.44318C24.4539 7.85511 24.5249 8.20431 24.667 8.49077C24.8114 8.77486 25.0115 8.99148 25.2671 9.14062C25.5228 9.28741 25.8199 9.3608 26.1585 9.3608C26.3786 9.3608 26.5775 9.33002 26.7551 9.26847C26.935 9.20455 27.0901 9.10985 27.2203 8.98438C27.3505 8.85653 27.4511 8.69792 27.5221 8.50852L28.3318 8.7358C28.2465 9.01042 28.1033 9.25189 27.9021 9.46023C27.7008 9.66619 27.4523 9.82718 27.1563 9.94318C26.8604 10.0568 26.5278 10.1136 26.1585 10.1136ZM29.6919 10V4.54545H30.5015V5.36932H30.5583C30.6578 5.09943 30.8377 4.88045 31.0981 4.71236C31.3585 4.54427 31.6521 4.46023 31.9788 4.46023C32.0403 4.46023 32.1173 4.46141 32.2096 4.46378C32.3019 4.46615 32.3718 4.4697 32.4191 4.47443V5.3267C32.3907 5.3196 32.3256 5.30895 32.2238 5.29474C32.1244 5.27817 32.019 5.26989 31.9078 5.26989C31.6426 5.26989 31.4059 5.32552 31.1975 5.43679C30.9916 5.54569 30.8282 5.69721 30.7075 5.89134C30.5891 6.0831 30.5299 6.30208 30.5299 6.5483V10H29.6919ZM35.5335 10.1136C35.0079 10.1136 34.5545 9.99763 34.1734 9.76562C33.7946 9.53125 33.5022 9.20455 33.2963 8.78551C33.0927 8.36411 32.9909 7.87405 32.9909 7.31534C32.9909 6.75663 33.0927 6.2642 33.2963 5.83807C33.5022 5.40956 33.7887 5.07576 34.1556 4.83665C34.5249 4.59517 34.9558 4.47443 35.4482 4.47443C35.7323 4.47443 36.0129 4.52178 36.2899 4.61648C36.5669 4.71117 36.819 4.86506 37.0463 5.07812C37.2735 5.28883 37.4546 5.56818 37.5896 5.91619C37.7245 6.2642 37.792 6.69271 37.792 7.2017V7.55682H33.5874V6.83239H36.9397C36.9397 6.52462 36.8782 6.25 36.7551 6.00852C36.6343 5.76705 36.4615 5.57647 36.2366 5.43679C36.0141 5.29711 35.7513 5.22727 35.4482 5.22727C35.1144 5.22727 34.8256 5.31013 34.5818 5.47585C34.3403 5.6392 34.1544 5.85227 34.0242 6.11506C33.894 6.37784 33.8289 6.65956 33.8289 6.96023V7.44318C33.8289 7.85511 33.8999 8.20431 34.042 8.49077C34.1864 8.77486 34.3865 8.99148 34.6421 9.14062C34.8978 9.28741 35.1949 9.3608 35.5335 9.3608C35.7536 9.3608 35.9525 9.33002 36.1301 9.26847C36.31 9.20455 36.4651 9.10985 36.5953 8.98438C36.7255 8.85653 36.8261 8.69792 36.8971 8.50852L37.7068 8.7358C37.6215 9.01042 37.4783 9.25189 37.2771 9.46023C37.0758 9.66619 36.8273 9.82718 36.5313 9.94318C36.2354 10.0568 35.9028 10.1136 35.5335 10.1136ZM41.1265 10.1136C40.672 10.1136 40.2707 9.99882 39.9227 9.76918C39.5747 9.53717 39.3024 9.21046 39.1059 8.78906C38.9094 8.36529 38.8112 7.86458 38.8112 7.28693C38.8112 6.71402 38.9094 6.21686 39.1059 5.79545C39.3024 5.37405 39.5758 5.04853 39.9262 4.81889C40.2766 4.58925 40.6814 4.47443 41.1407 4.47443C41.4958 4.47443 41.7764 4.53362 41.9823 4.65199C42.1907 4.76799 42.3493 4.90057 42.4582 5.04972C42.5695 5.1965 42.6559 5.31723 42.7174 5.41193H42.7884V2.72727H43.6265V10H42.8169V9.16193H42.7174C42.6559 9.26136 42.5683 9.38684 42.4546 9.53835C42.341 9.6875 42.1788 9.82126 41.9681 9.93963C41.7574 10.0556 41.4769 10.1136 41.1265 10.1136ZM41.2401 9.3608C41.5763 9.3608 41.8604 9.2732 42.0924 9.09801C42.3244 8.92045 42.5008 8.67543 42.6215 8.36293C42.7423 8.04806 42.8026 7.68466 42.8026 7.27273C42.8026 6.86553 42.7435 6.50923 42.6251 6.20384C42.5067 5.89607 42.3315 5.65696 42.0995 5.48651C41.8675 5.31368 41.5811 5.22727 41.2401 5.22727C40.885 5.22727 40.5891 5.31842 40.3524 5.50071C40.118 5.68063 39.9416 5.92566 39.8232 6.2358C39.7072 6.54356 39.6492 6.8892 39.6492 7.27273C39.6492 7.66098 39.7084 8.01373 39.8268 8.33097C39.9475 8.64583 40.1251 8.89678 40.3595 9.08381C40.5962 9.26847 40.8898 9.3608 41.2401 9.3608ZM48.2039 10V2.72727H49.042V5.41193H49.113C49.1746 5.31723 49.2598 5.1965 49.3687 5.04972C49.48 4.90057 49.6386 4.76799 49.8445 4.65199C50.0529 4.53362 50.3346 4.47443 50.6897 4.47443C51.149 4.47443 51.5538 4.58925 51.9042 4.81889C52.2546 5.04853 52.528 5.37405 52.7245 5.79545C52.921 6.21686 53.0193 6.71402 53.0193 7.28693C53.0193 7.86458 52.921 8.36529 52.7245 8.78906C52.528 9.21046 52.2558 9.53717 51.9078 9.76918C51.5597 9.99882 51.1585 10.1136 50.7039 10.1136C50.3535 10.1136 50.073 10.0556 49.8623 9.93963C49.6516 9.82126 49.4894 9.6875 49.3758 9.53835C49.2622 9.38684 49.1746 9.26136 49.113 9.16193H49.0136V10H48.2039ZM49.0278 7.27273C49.0278 7.68466 49.0882 8.04806 49.2089 8.36293C49.3296 8.67543 49.506 8.92045 49.738 9.09801C49.97 9.2732 50.2541 9.3608 50.5903 9.3608C50.9407 9.3608 51.233 9.26847 51.4674 9.08381C51.7042 8.89678 51.8817 8.64583 52.0001 8.33097C52.1208 8.01373 52.1812 7.66098 52.1812 7.27273C52.1812 6.8892 52.122 6.54356 52.0036 6.2358C51.8876 5.92566 51.7113 5.68063 51.4745 5.50071C51.2401 5.31842 50.9454 5.22727 50.5903 5.22727C50.2494 5.22727 49.9629 5.31368 49.7309 5.48651C49.4989 5.65696 49.3237 5.89607 49.2053 6.20384C49.087 6.50923 49.0278 6.86553 49.0278 7.27273ZM54.6457 12.0455C54.5036 12.0455 54.377 12.0336 54.2657 12.0099C54.1544 11.9886 54.0775 11.9673 54.0349 11.946L54.248 11.2074C54.4516 11.2595 54.6315 11.2784 54.7877 11.2642C54.944 11.25 55.0825 11.1802 55.2032 11.0547C55.3263 10.9316 55.4388 10.7315 55.5406 10.4545L55.6968 10.0284L53.6798 4.54545H54.5889L56.0945 8.89205H56.1514L57.657 4.54545H58.5661L56.2508 10.7955C56.1466 11.0772 56.0176 11.3104 55.8637 11.495C55.7098 11.6821 55.5311 11.8205 55.3275 11.9105C55.1263 12.0005 54.899 12.0455 54.6457 12.0455Z" fill="white"/>
</svg>
