<svg width="62" height="37" viewBox="0 0 62 37" fill="none" xmlns="http://www.w3.org/2000/svg">
<path d="M1.5725 23.7802C1.24817 23.7802 0.965889 23.6733 0.725647 23.4596C0.485404 23.2459 0.365283 22.9907 0.365283 22.6939V12.4008C0.365283 12.104 0.479398 11.8488 0.707629 11.6351C0.947871 11.4214 1.23616 11.3146 1.5725 11.3146H6.41939C7.57256 11.3146 8.49149 11.6351 9.17618 12.2762C9.87288 12.9054 10.2212 13.7543 10.2212 14.8227C10.2212 15.3332 10.0831 15.82 9.80681 16.283C9.53053 16.7341 9.16416 17.0844 8.7077 17.3337V17.3871C9.33233 17.6008 9.82483 17.951 10.1852 18.4378C10.5576 18.9245 10.7438 19.4825 10.7438 20.1117C10.7438 20.824 10.5756 21.4592 10.2393 22.0172C9.90291 22.5752 9.43444 23.0085 8.83383 23.3172C8.23322 23.6258 7.54853 23.7802 6.77976 23.7802H1.5725ZM6.38336 16.5501C6.77976 16.5501 7.1161 16.3898 7.39238 16.0693C7.68067 15.7488 7.82481 15.3629 7.82481 14.9118C7.82481 14.425 7.69268 14.0392 7.42841 13.7543C7.17616 13.4693 6.82781 13.3269 6.38336 13.3269H2.70765V16.5501H6.38336ZM6.74372 21.7679C7.23622 21.7679 7.62661 21.6254 7.9149 21.3405C8.20319 21.0437 8.34734 20.64 8.34734 20.1295C8.34734 19.6309 8.20319 19.2451 7.9149 18.972C7.63862 18.6871 7.24823 18.5446 6.74372 18.5446H2.70765V21.7679H6.74372Z" fill="white"/>
<path d="M13.7501 23.7802C13.4018 23.7802 13.1015 23.6555 12.8492 23.4062C12.609 23.1569 12.4888 22.8601 12.4888 22.5158V12.9173C12.4888 12.3237 12.687 11.8844 13.0834 11.5995C13.4798 11.3027 14.0865 11.1543 14.9033 11.1543V21.7144H19.7682C20.3328 21.7144 20.7592 21.8925 21.0475 22.2487C21.3358 22.593 21.4799 23.1035 21.4799 23.7802H13.7501Z" fill="white"/>
<path d="M27.4622 23.9404C26.4532 23.9404 25.5403 23.7386 24.7235 23.335C23.9187 22.9313 23.288 22.3733 22.8316 21.661C22.3751 20.9487 22.1469 20.1414 22.1469 19.2391V12.9173C22.1469 12.3474 22.3511 11.9141 22.7595 11.6173C23.1679 11.3086 23.7685 11.1543 24.5613 11.1543V19.2391C24.5613 20.0345 24.8256 20.6697 25.3541 21.1446C25.8826 21.6195 26.5854 21.8569 27.4622 21.8569C28.3391 21.8569 29.0418 21.6195 29.5704 21.1446C30.0989 20.6697 30.3632 20.0345 30.3632 19.2391V12.9173C30.3632 12.3355 30.5674 11.8963 30.9758 11.5995C31.3842 11.3027 31.9848 11.1543 32.7776 11.1543V19.2391C32.7776 20.1414 32.5494 20.9487 32.0929 21.661C31.6365 22.3733 30.9998 22.9313 30.183 23.335C29.3782 23.7386 28.4713 23.9404 27.4622 23.9404Z" fill="white"/>
<path d="M35.1608 12.9351C35.1608 12.3771 35.371 11.9438 35.7914 11.6351C36.2119 11.3146 36.8065 11.1543 37.5752 11.1543V22.1596C37.5752 22.7295 37.365 23.1688 36.9446 23.4774C36.5242 23.7861 35.9296 23.9404 35.1608 23.9404V12.9351Z" fill="white"/>
<path d="M45.2332 23.9404C44.1642 23.9404 43.2092 23.7386 42.3683 23.335C41.5395 22.9313 40.8909 22.3674 40.4224 21.6432C39.9539 20.919 39.7197 20.0939 39.7197 19.1679V15.8912C39.7197 14.9652 39.9479 14.146 40.4044 13.4337C40.8728 12.7095 41.5155 12.1515 42.3323 11.7598C43.1491 11.3561 44.0861 11.1543 45.1431 11.1543C46.2002 11.1543 47.1372 11.3146 47.954 11.6351C48.7828 11.9438 49.4255 12.383 49.8819 12.9529C50.3384 13.5109 50.5666 14.152 50.5666 14.8762C50.5666 15.3154 50.4165 15.6656 50.1162 15.9268C49.8279 16.1761 49.4375 16.3008 48.945 16.3008C48.7047 16.3008 48.4405 16.2652 48.1522 16.194C48.1762 15.909 48.1882 15.63 48.1882 15.357C48.1882 14.7278 47.9059 14.2173 47.3414 13.8255C46.7768 13.4337 46.0441 13.2378 45.1431 13.2378C44.2542 13.2378 43.5275 13.4871 42.9629 13.9858C42.4104 14.4725 42.1341 15.1077 42.1341 15.8912V19.1679C42.1341 19.9633 42.4224 20.6103 42.999 21.109C43.5756 21.6076 44.3203 21.8569 45.2332 21.8569C46.1342 21.8569 46.8669 21.661 47.4315 21.2692C47.996 20.8775 48.2783 20.3729 48.2783 19.7556C48.2783 19.4706 48.2663 19.1976 48.2423 18.9364C48.5426 18.877 48.7948 18.8473 48.999 18.8473C49.5036 18.8473 49.906 18.9779 50.2063 19.2391C50.5066 19.5003 50.6567 19.8565 50.6567 20.3076C50.6567 21.0081 50.4285 21.6373 49.972 22.1953C49.5156 22.7414 48.8729 23.1688 48.0441 23.4774C47.2273 23.7861 46.2903 23.9404 45.2332 23.9404Z" fill="white"/>
<path d="M52.3963 12.4008C52.3963 12.104 52.5104 11.8488 52.7387 11.6351C52.9789 11.4214 53.2672 11.3146 53.6035 11.3146H61.6396C61.6396 12.0269 61.5135 12.5492 61.2613 12.8817C61.021 13.2022 60.6246 13.3625 60.0721 13.3625H54.8107V16.4611H59.6036C59.6036 17.1734 59.4775 17.6958 59.2252 18.0282C58.985 18.3487 58.5886 18.509 58.036 18.509H54.8107V21.7322H60.4504C60.991 21.7322 61.3814 21.8985 61.6216 22.2309C61.8739 22.5514 62 23.0678 62 23.7802H53.6035C53.2672 23.7802 52.9789 23.6793 52.7387 23.4774C52.5104 23.2637 52.3963 23.0026 52.3963 22.6939V12.4008Z" fill="white"/>
<path d="M1.80182 34.7792C1.50505 34.7792 1.27894 34.6989 1.12349 34.5383C0.975102 34.3707 0.900909 34.1542 0.900909 33.8888V30.1073H0V29.374H0.508749C0.692464 29.374 0.816118 29.3391 0.879711 29.2692C0.950371 29.1924 0.985701 29.0632 0.985701 28.8816V27.876H1.74882V29.374H2.9465V30.1073H1.74882V34.046H2.86171V34.7792H1.80182Z" fill="white"/>
<path d="M6.48315 34.9049C6.10866 34.9049 5.76949 34.8386 5.46565 34.7059C5.16888 34.5732 4.91098 34.3847 4.69193 34.1402C4.47995 33.8888 4.3139 33.592 4.19378 33.2498C4.08073 32.9007 4.0242 32.5096 4.0242 32.0766C4.0242 31.6506 4.08073 31.263 4.19378 30.9138C4.3139 30.5647 4.47995 30.2679 4.69193 30.0234C4.91098 29.772 5.16888 29.58 5.46565 29.4473C5.76949 29.3146 6.10866 29.2483 6.48315 29.2483C6.85058 29.2483 7.17915 29.3146 7.46885 29.4473C7.75856 29.58 8.00587 29.7651 8.21078 30.0025C8.41569 30.233 8.57114 30.5088 8.67713 30.83C8.79019 31.1513 8.84671 31.504 8.84671 31.8881V32.2861H4.91451V32.5375C4.91451 32.768 4.94984 32.9845 5.0205 33.187C5.09822 33.3825 5.20421 33.5536 5.33847 33.7003C5.47979 33.8469 5.64937 33.9622 5.84722 34.046C6.05213 34.1298 6.28177 34.1717 6.53615 34.1717C6.88238 34.1717 7.18268 34.0914 7.43706 33.9307C7.6985 33.7701 7.89988 33.5397 8.04119 33.2394L8.64533 33.6689C8.46869 34.039 8.19311 34.3393 7.81862 34.5697C7.44412 34.7932 6.99897 34.9049 6.48315 34.9049ZM6.48315 29.9501C6.24997 29.9501 6.038 29.992 5.84722 30.0758C5.65643 30.1526 5.49038 30.2644 5.34907 30.411C5.21481 30.5577 5.10882 30.7323 5.0311 30.9348C4.95337 31.1303 4.91451 31.3468 4.91451 31.5843V31.6576H7.9352V31.5424C7.9352 31.0605 7.80095 30.6764 7.53245 30.3901C7.27101 30.0968 6.92124 29.9501 6.48315 29.9501Z" fill="white"/>
<path d="M12.4379 34.9049C12.0564 34.9049 11.7137 34.8386 11.4098 34.7059C11.106 34.5732 10.8481 34.3847 10.6361 34.1402C10.4312 33.8958 10.2722 33.599 10.1592 33.2498C10.0532 32.9007 10.0002 32.5096 10.0002 32.0766C10.0002 31.6436 10.0532 31.2526 10.1592 30.9034C10.2722 30.5542 10.4312 30.2574 10.6361 30.013C10.8481 29.7686 11.106 29.58 11.4098 29.4473C11.7137 29.3146 12.0564 29.2483 12.4379 29.2483C12.982 29.2483 13.4166 29.367 13.7416 29.6044C14.0737 29.8349 14.321 30.1387 14.4835 30.5158L13.7734 30.872C13.6745 30.5926 13.512 30.3761 13.2858 30.2225C13.0597 30.0688 12.7771 29.992 12.4379 29.992C12.1836 29.992 11.961 30.0339 11.7702 30.1177C11.5794 30.1945 11.4204 30.3063 11.2932 30.4529C11.1661 30.5926 11.0707 30.7637 11.0071 30.9662C10.9435 31.1618 10.9117 31.3783 10.9117 31.6157V32.5375C10.9117 33.0124 11.0389 33.4035 11.2932 33.7108C11.5547 34.011 11.9362 34.1612 12.4379 34.1612C13.1233 34.1612 13.6179 33.8469 13.9218 33.2184L14.5365 33.627C14.3599 34.018 14.0949 34.3288 13.7416 34.5593C13.3954 34.7897 12.9608 34.9049 12.4379 34.9049Z" fill="white"/>
<path d="M15.8924 27.0275H16.7404V30.2539H16.7827C16.917 29.9466 17.1042 29.7022 17.3445 29.5206C17.5918 29.3391 17.9204 29.2483 18.3302 29.2483C18.8955 29.2483 19.3406 29.4298 19.6657 29.793C19.9978 30.1492 20.1638 30.6555 20.1638 31.3119V34.7792H19.3159V31.4586C19.3159 30.4879 18.9025 30.0025 18.0758 30.0025C17.9062 30.0025 17.7402 30.0234 17.5777 30.0653C17.4222 30.1073 17.2809 30.1701 17.1537 30.2539C17.0265 30.3377 16.9241 30.446 16.8463 30.5786C16.7757 30.7043 16.7404 30.8545 16.7404 31.0291V34.7792H15.8924V27.0275Z" fill="white"/>
<path d="M22.0754 34.7792V29.374H22.9233V30.2539H22.9657C23.1 29.9466 23.2872 29.7022 23.5275 29.5206C23.7748 29.3391 24.1034 29.2483 24.5132 29.2483C25.0785 29.2483 25.5236 29.4298 25.8486 29.793C26.1807 30.1492 26.3468 30.6555 26.3468 31.3119V34.7792H25.4989V31.4586C25.4989 30.4879 25.0855 30.0025 24.2588 30.0025C24.0892 30.0025 23.9232 30.0234 23.7607 30.0653C23.6052 30.1073 23.4639 30.1701 23.3367 30.2539C23.2095 30.3377 23.1071 30.446 23.0293 30.5786C22.9587 30.7043 22.9233 30.8545 22.9233 31.0291V34.7792H22.0754Z" fill="white"/>
<path d="M30.3252 34.9049C29.9578 34.9049 29.6221 34.8386 29.3183 34.7059C29.0145 34.5732 28.753 34.3847 28.534 34.1402C28.322 33.8888 28.156 33.592 28.0358 33.2498C27.9157 32.9007 27.8557 32.5096 27.8557 32.0766C27.8557 31.6506 27.9157 31.263 28.0358 30.9138C28.156 30.5647 28.322 30.2679 28.534 30.0234C28.753 29.772 29.0145 29.58 29.3183 29.4473C29.6221 29.3146 29.9578 29.2483 30.3252 29.2483C30.6926 29.2483 31.0247 29.3146 31.3215 29.4473C31.6253 29.58 31.8868 29.772 32.1058 30.0234C32.3249 30.2679 32.4944 30.5647 32.6146 30.9138C32.7347 31.263 32.7948 31.6506 32.7948 32.0766C32.7948 32.5096 32.7347 32.9007 32.6146 33.2498C32.4944 33.592 32.3249 33.8888 32.1058 34.1402C31.8868 34.3847 31.6253 34.5732 31.3215 34.7059C31.0247 34.8386 30.6926 34.9049 30.3252 34.9049ZM30.3252 34.1612C30.7845 34.1612 31.159 34.0215 31.4487 33.7422C31.7384 33.4628 31.8832 33.0368 31.8832 32.4642V31.689C31.8832 31.1164 31.7384 30.6904 31.4487 30.411C31.159 30.1317 30.7845 29.992 30.3252 29.992C29.8659 29.992 29.4914 30.1317 29.2017 30.411C28.912 30.6904 28.7672 31.1164 28.7672 31.689V32.4642C28.7672 33.0368 28.912 33.4628 29.2017 33.7422C29.4914 34.0215 29.8659 34.1612 30.3252 34.1612Z" fill="white"/>
<path d="M35.2491 34.7792C34.9524 34.7792 34.7263 34.6989 34.5708 34.5383C34.4224 34.3707 34.3482 34.1612 34.3482 33.9098V27.0275H35.1962V34.046H36.0017V34.7792H35.2491Z" fill="white"/>
<path d="M39.4618 34.9049C39.0944 34.9049 38.7588 34.8386 38.4549 34.7059C38.1511 34.5732 37.8896 34.3847 37.6706 34.1402C37.4586 33.8888 37.2926 33.592 37.1724 33.2498C37.0523 32.9007 36.9923 32.5096 36.9923 32.0766C36.9923 31.6506 37.0523 31.263 37.1724 30.9138C37.2926 30.5647 37.4586 30.2679 37.6706 30.0234C37.8896 29.772 38.1511 29.58 38.4549 29.4473C38.7588 29.3146 39.0944 29.2483 39.4618 29.2483C39.8292 29.2483 40.1613 29.3146 40.4581 29.4473C40.7619 29.58 41.0234 29.772 41.2424 30.0234C41.4615 30.2679 41.6311 30.5647 41.7512 30.9138C41.8713 31.263 41.9314 31.6506 41.9314 32.0766C41.9314 32.5096 41.8713 32.9007 41.7512 33.2498C41.6311 33.592 41.4615 33.8888 41.2424 34.1402C41.0234 34.3847 40.7619 34.5732 40.4581 34.7059C40.1613 34.8386 39.8292 34.9049 39.4618 34.9049ZM39.4618 34.1612C39.9211 34.1612 40.2956 34.0215 40.5853 33.7422C40.875 33.4628 41.0199 33.0368 41.0199 32.4642V31.689C41.0199 31.1164 40.875 30.6904 40.5853 30.411C40.2956 30.1317 39.9211 29.992 39.4618 29.992C39.0025 29.992 38.628 30.1317 38.3383 30.411C38.0486 30.6904 37.9038 31.1164 37.9038 31.689V32.4642C37.9038 33.0368 38.0486 33.4628 38.3383 33.7422C38.628 34.0215 39.0025 34.1612 39.4618 34.1612Z" fill="white"/>
<path d="M48.0954 35.3763C48.0954 35.935 47.8728 36.3436 47.4277 36.6019C46.9896 36.8673 46.3289 37 45.4457 37C44.5907 37 43.9759 36.8848 43.6014 36.6543C43.2269 36.4239 43.0397 36.0956 43.0397 35.6696C43.0397 35.3763 43.1174 35.1459 43.2729 34.9783C43.4283 34.8176 43.6403 34.6989 43.9088 34.6221V34.5069C43.5838 34.3532 43.4213 34.1018 43.4213 33.7527C43.4213 33.4803 43.5096 33.2743 43.6862 33.1346C43.8629 32.988 44.089 32.8797 44.3646 32.8099V32.768C44.0395 32.6143 43.7852 32.3944 43.6014 32.108C43.4248 31.8217 43.3365 31.49 43.3365 31.1129C43.3365 30.8405 43.3859 30.5891 43.4849 30.3587C43.5838 30.1282 43.7216 29.9327 43.8982 29.772C44.0819 29.6044 44.2974 29.4752 44.5448 29.3845C44.7991 29.2937 45.0818 29.2483 45.3927 29.2483C45.7813 29.2483 46.1275 29.3181 46.4314 29.4578V29.3635C46.4314 29.154 46.4808 28.9829 46.5797 28.8502C46.6787 28.7105 46.8412 28.6407 47.0673 28.6407H47.8834V29.374H46.8447V29.7197C47.0426 29.8873 47.1945 30.0898 47.3005 30.3272C47.4135 30.5577 47.4701 30.8196 47.4701 31.1129C47.4701 31.3852 47.4206 31.6366 47.3217 31.8671C47.2227 32.0976 47.0814 32.2966 46.8977 32.4642C46.7211 32.6248 46.5056 32.7505 46.2512 32.8413C45.9968 32.9321 45.7142 32.9775 45.4033 32.9775C45.2266 32.9775 45.05 32.96 44.8733 32.9251C44.6896 32.974 44.5236 33.0473 44.3752 33.1451C44.2268 33.2359 44.1526 33.3651 44.1526 33.5327C44.1526 33.6933 44.2303 33.8015 44.3858 33.8574C44.5412 33.9133 44.7426 33.9412 44.9899 33.9412H46.1558C46.8341 33.9412 47.3252 34.0704 47.629 34.3288C47.9399 34.5802 48.0954 34.9294 48.0954 35.3763ZM47.3005 35.4392C47.3005 35.2227 47.2157 35.0481 47.0461 34.9154C46.8836 34.7897 46.5903 34.7269 46.1664 34.7269H44.3434C44.0042 34.8805 43.8346 35.1249 43.8346 35.4601C43.8346 35.6976 43.9229 35.9001 44.0996 36.0677C44.2833 36.2353 44.5907 36.3191 45.0217 36.3191H45.806C46.2794 36.3191 46.6469 36.2458 46.9083 36.0991C47.1698 35.9525 47.3005 35.7325 47.3005 35.4392ZM45.4033 32.3071C45.7636 32.3071 46.0498 32.2233 46.2618 32.0557C46.4738 31.8811 46.5797 31.6157 46.5797 31.2595V30.9662C46.5797 30.6101 46.4738 30.3482 46.2618 30.1806C46.0498 30.006 45.7636 29.9187 45.4033 29.9187C45.0429 29.9187 44.7567 30.006 44.5448 30.1806C44.3328 30.3482 44.2268 30.6101 44.2268 30.9662V31.2595C44.2268 31.6157 44.3328 31.8811 44.5448 32.0557C44.7567 32.2233 45.0429 32.3071 45.4033 32.3071Z" fill="white"/>
<path d="M49.6674 28.1065C49.4837 28.1065 49.3495 28.0646 49.2647 27.9808C49.1869 27.89 49.1481 27.7748 49.1481 27.6351V27.4989C49.1481 27.3592 49.1869 27.2475 49.2647 27.1637C49.3495 27.0729 49.4837 27.0275 49.6674 27.0275C49.8511 27.0275 49.9819 27.0729 50.0596 27.1637C50.1444 27.2475 50.1868 27.3592 50.1868 27.4989V27.6351C50.1868 27.7748 50.1444 27.89 50.0596 27.9808C49.9819 28.0646 49.8511 28.1065 49.6674 28.1065ZM49.2435 29.374H50.0914V34.7792H49.2435V29.374Z" fill="white"/>
<path d="M54.1084 34.9049C53.7339 34.9049 53.3947 34.8386 53.0909 34.7059C52.7941 34.5732 52.5362 34.3847 52.3172 34.1402C52.1052 33.8888 51.9391 33.592 51.819 33.2498C51.706 32.9007 51.6494 32.5096 51.6494 32.0766C51.6494 31.6506 51.706 31.263 51.819 30.9138C51.9391 30.5647 52.1052 30.2679 52.3172 30.0234C52.5362 29.772 52.7941 29.58 53.0909 29.4473C53.3947 29.3146 53.7339 29.2483 54.1084 29.2483C54.4758 29.2483 54.8044 29.3146 55.0941 29.4473C55.3838 29.58 55.6311 29.7651 55.836 30.0025C56.0409 30.233 56.1964 30.5088 56.3024 30.83C56.4154 31.1513 56.4719 31.504 56.4719 31.8881V32.2861H52.5397V32.5375C52.5397 32.768 52.5751 32.9845 52.6457 33.187C52.7234 33.3825 52.8294 33.5536 52.9637 33.7003C53.105 33.8469 53.2746 33.9622 53.4724 34.046C53.6774 34.1298 53.907 34.1717 54.1614 34.1717C54.5076 34.1717 54.8079 34.0914 55.0623 33.9307C55.3237 33.7701 55.5251 33.5397 55.6664 33.2394L56.2706 33.6689C56.0939 34.039 55.8183 34.3393 55.4438 34.5697C55.0694 34.7932 54.6242 34.9049 54.1084 34.9049ZM54.1084 29.9501C53.8752 29.9501 53.6632 29.992 53.4724 30.0758C53.2817 30.1526 53.1156 30.2644 52.9743 30.411C52.84 30.5577 52.7341 30.7323 52.6563 30.9348C52.5786 31.1303 52.5397 31.3468 52.5397 31.5843V31.6576H55.5604V31.5424C55.5604 31.0605 55.4262 30.6764 55.1577 30.3901C54.8962 30.0968 54.5465 29.9501 54.1084 29.9501Z" fill="white"/>
<path d="M59.671 34.9049C59.1622 34.9049 58.7348 34.8107 58.3885 34.6221C58.0494 34.4266 57.7561 34.1682 57.5088 33.8469L58.1129 33.3651C58.3249 33.6304 58.5616 33.8365 58.8231 33.9831C59.0845 34.1228 59.3884 34.1926 59.7346 34.1926C60.0949 34.1926 60.3741 34.1158 60.5719 33.9622C60.7768 33.8085 60.8793 33.592 60.8793 33.3127C60.8793 33.1032 60.8086 32.9251 60.6673 32.7785C60.533 32.6248 60.2857 32.5201 59.9254 32.4642L59.4908 32.4013C59.2364 32.3664 59.0033 32.314 58.7913 32.2442C58.5793 32.1674 58.3921 32.0696 58.2295 31.9509C58.0741 31.8252 57.9504 31.6716 57.8586 31.49C57.7738 31.3084 57.7314 31.0919 57.7314 30.8405C57.7314 30.5751 57.7808 30.3447 57.8798 30.1492C57.9787 29.9466 58.1129 29.779 58.2825 29.6463C58.4592 29.5137 58.6676 29.4159 58.9079 29.353C59.1481 29.2832 59.406 29.2483 59.6816 29.2483C60.1267 29.2483 60.4977 29.3251 60.7945 29.4787C61.0983 29.6324 61.3633 29.8454 61.5894 30.1177L61.0277 30.6205C60.9075 30.4529 60.7309 30.3028 60.4977 30.1701C60.2645 30.0304 59.9713 29.9606 59.618 29.9606C59.2647 29.9606 58.9962 30.0374 58.8125 30.1911C58.6358 30.3377 58.5475 30.5402 58.5475 30.7986C58.5475 31.064 58.6358 31.256 58.8125 31.3748C58.9962 31.4935 59.2576 31.5808 59.5968 31.6366L60.0208 31.6995C60.6284 31.7903 61.0595 31.9649 61.3138 32.2233C61.5682 32.4747 61.6954 32.8064 61.6954 33.2184C61.6954 33.7422 61.5152 34.1542 61.1548 34.4545C60.7945 34.7548 60.2999 34.9049 59.671 34.9049Z" fill="white"/>
<path d="M1.01212 2.49095V3.87709H0.577394V0.209711H1.59692C1.99369 0.209711 2.30076 0.305189 2.51812 0.496145C2.7372 0.687101 2.84675 0.956485 2.84675 1.3043C2.84675 1.65211 2.72513 1.93684 2.48189 2.15849C2.24038 2.38013 1.91347 2.49095 1.50118 2.49095H1.01212ZM1.01212 0.598443V2.10222H1.46754C1.7677 2.10222 1.99628 2.03488 2.15326 1.90018C2.31197 1.76379 2.39132 1.57198 2.39132 1.32476C2.39132 0.840548 2.10151 0.598443 1.52188 0.598443H1.01212Z" fill="white"/>
<path d="M4.40191 3.93847C4.01032 3.93847 3.69721 3.81656 3.4626 3.57275C3.22972 3.32724 3.11327 3.00244 3.11327 2.59837C3.11327 2.15849 3.23489 1.81494 3.47813 1.56772C3.72136 1.3205 4.04999 1.19689 4.46401 1.19689C4.85906 1.19689 5.16699 1.31709 5.3878 1.55749C5.61033 1.79789 5.7216 2.13121 5.7216 2.55745C5.7216 2.97516 5.60171 3.31019 5.36192 3.56252C5.12386 3.81315 4.80386 3.93847 4.40191 3.93847ZM4.43296 1.54981C4.1604 1.54981 3.94476 1.64188 3.78606 1.82602C3.62735 2.00845 3.54799 2.26078 3.54799 2.58302C3.54799 2.89333 3.62821 3.13799 3.78864 3.31701C3.94908 3.49603 4.16385 3.58554 4.43296 3.58554C4.70725 3.58554 4.91771 3.49774 5.06434 3.32212C5.2127 3.14651 5.28688 2.89674 5.28688 2.57279C5.28688 2.24544 5.2127 1.9931 5.06434 1.81579C4.91771 1.63847 4.70725 1.54981 4.43296 1.54981Z" fill="white"/>
<path d="M9.7376 1.25826L8.9432 3.87709H8.50331L7.95731 2.00248C7.93661 1.93087 7.92281 1.84989 7.91591 1.75952H7.90556C7.90039 1.8209 7.88227 1.90018 7.85122 1.99737L7.25866 3.87709H6.83428L6.03212 1.25826H6.47719L7.02577 3.2275C7.04302 3.28717 7.05509 3.3656 7.062 3.46278H7.0827C7.08787 3.38777 7.1034 3.30763 7.12927 3.22238L7.73995 1.25826H8.1281L8.67668 3.23261C8.69393 3.2957 8.70687 3.37413 8.71549 3.4679H8.73619C8.73964 3.4014 8.7543 3.32298 8.78018 3.23261L9.31841 1.25826H9.7376Z" fill="white"/>
<path d="M12.3589 2.67253H10.488C10.4949 2.96408 10.5743 3.18914 10.7261 3.3477C10.8779 3.50626 11.0866 3.58554 11.3523 3.58554C11.6507 3.58554 11.925 3.48836 12.1752 3.29399V3.68784C11.9423 3.85493 11.6343 3.93847 11.2514 3.93847C10.877 3.93847 10.5829 3.81997 10.369 3.58298C10.1551 3.34429 10.0481 3.00926 10.0481 2.57791C10.0481 2.17042 10.1646 1.8388 10.3975 1.58306C10.6321 1.32561 10.9227 1.19689 11.2695 1.19689C11.6162 1.19689 11.8845 1.30771 12.0742 1.52935C12.264 1.751 12.3589 2.05875 12.3589 2.45259V2.67253ZM11.9242 2.31705C11.9224 2.07494 11.8629 1.88654 11.7456 1.75185C11.63 1.61716 11.4687 1.54981 11.2617 1.54981C11.0616 1.54981 10.8917 1.62057 10.752 1.76208C10.6122 1.90359 10.526 2.08858 10.4932 2.31705H11.9242Z" fill="white"/>
<path d="M14.385 1.6828C14.3108 1.62654 14.2039 1.5984 14.0641 1.5984C13.883 1.5984 13.7312 1.6828 13.6087 1.85159C13.4879 2.02038 13.4276 2.25055 13.4276 2.5421V3.87709H13.0032V1.25826H13.4276V1.79789H13.4379C13.4983 1.61375 13.5906 1.47053 13.7148 1.36823C13.839 1.26423 13.9779 1.21223 14.1314 1.21223C14.2418 1.21223 14.3263 1.22416 14.385 1.24803V1.6828Z" fill="white"/>
<path d="M16.9752 2.67253H15.1043C15.1112 2.96408 15.1906 3.18914 15.3424 3.3477C15.4942 3.50626 15.703 3.58554 15.9686 3.58554C16.2671 3.58554 16.5413 3.48836 16.7915 3.29399V3.68784C16.5586 3.85493 16.2507 3.93847 15.8677 3.93847C15.4934 3.93847 15.1992 3.81997 14.9853 3.58298C14.7714 3.34429 14.6645 3.00926 14.6645 2.57791C14.6645 2.17042 14.7809 1.8388 15.0138 1.58306C15.2484 1.32561 15.5391 1.19689 15.8858 1.19689C16.2326 1.19689 16.5008 1.30771 16.6906 1.52935C16.8803 1.751 16.9752 2.05875 16.9752 2.45259V2.67253ZM16.5405 2.31705C16.5388 2.07494 16.4792 1.88654 16.3619 1.75185C16.2464 1.61716 16.0851 1.54981 15.8781 1.54981C15.6779 1.54981 15.508 1.62057 15.3683 1.76208C15.2286 1.90359 15.1423 2.08858 15.1095 2.31705H16.5405Z" fill="white"/>
<path d="M19.8811 3.87709H19.4567V3.43209H19.4464C19.2497 3.76968 18.9461 3.93847 18.5355 3.93847C18.2026 3.93847 17.9361 3.82168 17.736 3.5881C17.5376 3.35281 17.4384 3.03313 17.4384 2.62906C17.4384 2.19599 17.5488 1.84903 17.7696 1.58817C17.9904 1.32732 18.2845 1.19689 18.652 1.19689C19.016 1.19689 19.2808 1.3384 19.4464 1.62142H19.4567V0H19.8811V3.87709ZM19.4567 2.69299V2.30682C19.4567 2.0954 19.386 1.91638 19.2446 1.76975C19.1031 1.62313 18.9237 1.54981 18.7063 1.54981C18.4476 1.54981 18.244 1.64359 18.0956 1.83113C17.9473 2.01868 17.8731 2.27783 17.8731 2.6086C17.8731 2.91038 17.9438 3.14907 18.0853 3.32468C18.2285 3.49859 18.42 3.58554 18.6598 3.58554C18.8961 3.58554 19.0876 3.50115 19.2342 3.33235C19.3826 3.16356 19.4567 2.95044 19.4567 2.69299Z" fill="white"/>
<path d="M22.6292 3.49859H22.6188V3.87709H22.1945V0H22.6188V1.7186H22.6292C22.8379 1.37079 23.1433 1.19689 23.5452 1.19689C23.885 1.19689 24.1507 1.31453 24.3422 1.54981C24.5354 1.78339 24.632 2.09711 24.632 2.49095C24.632 2.92913 24.5242 3.28035 24.3085 3.54462C24.0929 3.80719 23.7979 3.93847 23.4236 3.93847C23.0734 3.93847 22.8086 3.79184 22.6292 3.49859ZM22.6188 2.44236V2.80808C22.6188 3.02461 22.6896 3.20874 22.831 3.36049C22.9742 3.51052 23.1553 3.58554 23.3744 3.58554C23.6315 3.58554 23.8324 3.48836 23.9773 3.29399C24.124 3.09963 24.1973 2.82939 24.1973 2.48328C24.1973 2.19173 24.1291 1.96327 23.9929 1.79789C23.8566 1.6325 23.672 1.54981 23.4391 1.54981C23.1924 1.54981 22.994 1.63506 22.844 1.80556C22.6939 1.97435 22.6188 2.18662 22.6188 2.44236Z" fill="white"/>
<path d="M27.4189 1.25826L26.2001 4.29651C25.9827 4.83869 25.6774 5.10978 25.2841 5.10978C25.1737 5.10978 25.0814 5.0987 25.0072 5.07653V4.70059C25.0986 4.73128 25.1823 4.74662 25.2582 4.74662C25.4721 4.74662 25.6326 4.62045 25.7395 4.36812L25.9517 3.87198L24.9166 1.25826H25.3876L26.1044 3.27353C26.113 3.29911 26.1311 3.3656 26.1587 3.47301H26.1742C26.1829 3.43209 26.2001 3.36731 26.226 3.27865L26.979 1.25826H27.4189Z" fill="white"/>
</svg>
