<svg width="267" height="70" viewBox="0 0 267 70" fill="none" xmlns="http://www.w3.org/2000/svg">
<path d="M90.9766 38.3604H81.5504V7.8149H91.3942C94.3572 7.8149 96.8928 8.4264 99.0007 9.64941C101.109 10.8625 102.724 12.6075 103.848 14.8845C104.972 17.1515 105.533 19.866 105.533 23.028C105.533 26.2098 104.967 28.9491 103.833 31.246C102.7 33.5329 101.049 35.2929 98.8814 36.5258C96.7138 37.7488 94.0788 38.3604 90.9766 38.3604ZM85.2493 35.0791H90.7379C93.2635 35.0791 95.3565 34.5919 97.017 33.6175C98.6776 32.643 99.9155 31.2559 100.731 29.4562C101.546 27.6565 101.954 25.5138 101.954 23.028C101.954 20.5621 101.551 18.4392 100.746 16.6594C99.9403 14.8696 98.7372 13.4974 97.1364 12.5429C95.5355 11.5784 93.5419 11.0961 91.1555 11.0961H85.2493V35.0791ZM111.738 38.3604V7.8149H130.173V11.0961H115.437V21.4172H129.218V24.6984H115.437V35.0791H130.411V38.3604H111.738ZM161.419 17.3604H157.72C157.501 16.2964 157.119 15.3618 156.572 14.5564C156.035 13.751 155.379 13.0748 154.603 12.528C153.837 11.9711 152.987 11.5535 152.053 11.2751C151.118 10.9967 150.143 10.8575 149.129 10.8575C147.28 10.8575 145.604 11.3248 144.103 12.2595C142.612 13.1942 141.423 14.5713 140.538 16.3909C139.663 18.2105 139.226 20.4427 139.226 23.0876C139.226 25.7325 139.663 27.9648 140.538 29.7844C141.423 31.604 142.612 32.9811 144.103 33.9157C145.604 34.8504 147.28 35.3177 149.129 35.3177C150.143 35.3177 151.118 35.1785 152.053 34.9001C152.987 34.6217 153.837 34.2091 154.603 33.6622C155.379 33.1054 156.035 32.4243 156.572 31.6189C157.119 30.8035 157.501 29.8689 157.72 28.8149H161.419C161.141 30.376 160.634 31.773 159.898 33.0059C159.162 34.2389 158.247 35.2879 157.153 36.153C156.06 37.0081 154.832 37.6594 153.469 38.1068C152.117 38.5542 150.67 38.778 149.129 38.778C146.524 38.778 144.207 38.1416 142.179 36.8689C140.151 35.5961 138.555 33.7865 137.391 31.4399C136.228 29.0933 135.646 26.3092 135.646 23.0876C135.646 19.866 136.228 17.0819 137.391 14.7354C138.555 12.3888 140.151 10.5791 142.179 9.30637C144.207 8.03365 146.524 7.39728 149.129 7.39728C150.67 7.39728 152.117 7.621 153.469 8.06845C154.832 8.51589 156.06 9.17214 157.153 10.0372C158.247 10.8923 159.162 11.9363 159.898 13.1693C160.634 14.3923 161.141 15.7893 161.419 17.3604ZM171.095 7.8149V38.3604H167.396V7.8149H171.095ZM195.216 15.4513C195.037 13.9399 194.311 12.7666 193.038 11.9314C191.766 11.0961 190.205 10.6785 188.355 10.6785C187.003 10.6785 185.82 10.8973 184.805 11.3348C183.801 11.7723 183.016 12.3738 182.449 13.1395C181.892 13.9051 181.614 14.7751 181.614 15.7496C181.614 16.5649 181.808 17.2659 182.195 17.8525C182.593 18.4292 183.1 18.9115 183.717 19.2993C184.333 19.6771 184.979 19.9903 185.656 20.2389C186.332 20.4775 186.953 20.6714 187.52 20.8206L190.622 21.6558C191.418 21.8646 192.303 22.153 193.277 22.5209C194.261 22.8888 195.201 23.3909 196.096 24.0273C197.001 24.6537 197.746 25.4591 198.333 26.4434C198.92 27.4278 199.213 28.6359 199.213 30.0677C199.213 31.7183 198.781 33.2098 197.915 34.5422C197.06 35.8746 195.808 36.9335 194.157 37.719C192.516 38.5045 190.523 38.8973 188.176 38.8973C185.989 38.8973 184.094 38.5443 182.494 37.8383C180.903 37.1324 179.65 36.148 178.735 34.8852C177.83 33.6224 177.318 32.1558 177.199 30.4854H181.017C181.116 31.6388 181.504 32.5933 182.18 33.349C182.866 34.0947 183.732 34.6515 184.776 35.0194C185.83 35.3774 186.963 35.5564 188.176 35.5564C189.588 35.5564 190.856 35.3277 191.979 34.8703C193.103 34.403 193.993 33.7567 194.649 32.9314C195.305 32.0961 195.634 31.1217 195.634 30.0081C195.634 28.9939 195.35 28.1686 194.783 27.5322C194.217 26.8959 193.471 26.3788 192.546 25.9811C191.621 25.5834 190.622 25.2354 189.548 24.9371L185.79 23.8632C183.403 23.1771 181.514 22.1977 180.122 20.925C178.73 19.6523 178.034 17.9868 178.034 15.9285C178.034 14.2183 178.496 12.7268 179.421 11.4541C180.356 10.1714 181.609 9.17711 183.18 8.47115C184.761 7.75524 186.526 7.39728 188.474 7.39728C190.443 7.39728 192.193 7.75027 193.724 8.45623C195.256 9.15225 196.469 10.1068 197.364 11.3199C198.268 12.5329 198.746 13.9101 198.795 15.4513H195.216ZM208.993 7.8149V38.3604H205.295V7.8149H208.993ZM217.663 7.8149L226.731 33.528H227.089L236.157 7.8149H240.035L228.819 38.3604H225.001L213.785 7.8149H217.663ZM244.793 38.3604V7.8149H263.227V11.0961H248.491V21.4172H262.273V24.6984H248.491V35.0791H263.466V38.3604H244.793Z" fill="white"/>
<path d="M82.0547 60.9199V48.9199H89.2969V50.209H83.5078V54.2637H88.9219V55.5527H83.5078V59.6309H89.3906V60.9199H82.0547ZM101.432 48.9199V60.9199H100.025L93.4863 51.498H93.3691V60.9199H91.916V48.9199H93.3223L99.8848 58.3652H100.002V48.9199H101.432ZM112.542 52.6699C112.414 52.2754 112.244 51.9219 112.033 51.6094C111.826 51.293 111.578 51.0234 111.289 50.8008C111.003 50.5781 110.679 50.4082 110.316 50.291C109.953 50.1738 109.554 50.1152 109.121 50.1152C108.41 50.1152 107.763 50.2988 107.181 50.666C106.599 51.0332 106.136 51.5742 105.792 52.2891C105.449 53.0039 105.277 53.8809 105.277 54.9199C105.277 55.959 105.451 56.8359 105.798 57.5508C106.146 58.2656 106.617 58.8066 107.21 59.1738C107.804 59.541 108.472 59.7246 109.214 59.7246C109.902 59.7246 110.507 59.5781 111.031 59.2852C111.558 58.9883 111.968 58.5703 112.261 58.0312C112.558 57.4883 112.707 56.8496 112.707 56.1152L113.152 56.209H109.542V54.9199H114.113V56.209C114.113 57.1973 113.902 58.0566 113.48 58.7871C113.062 59.5176 112.484 60.084 111.746 60.4863C111.011 60.8848 110.167 61.084 109.214 61.084C108.152 61.084 107.218 60.834 106.414 60.334C105.613 59.834 104.988 59.123 104.539 58.2012C104.093 57.2793 103.871 56.1855 103.871 54.9199C103.871 53.9707 103.998 53.1172 104.251 52.3594C104.509 51.5977 104.873 50.9492 105.341 50.4141C105.81 49.8789 106.365 49.4688 107.005 49.1836C107.646 48.8984 108.351 48.7559 109.121 48.7559C109.753 48.7559 110.343 48.8516 110.89 49.043C111.441 49.2305 111.931 49.498 112.361 49.8457C112.794 50.1895 113.156 50.6016 113.445 51.082C113.734 51.5586 113.933 52.0879 114.042 52.6699H112.542ZM118.055 48.9199V60.9199H116.602V48.9199H118.055ZM130.484 48.9199V60.9199H129.078L122.539 51.498H122.421V60.9199H120.968V48.9199H122.375L128.937 58.3652H129.054V48.9199H130.484ZM133.392 60.9199V48.9199H140.634V50.209H134.845V54.2637H140.259V55.5527H134.845V59.6309H140.728V60.9199H133.392ZM143.253 60.9199V48.9199H150.495V50.209H144.706V54.2637H150.12V55.5527H144.706V59.6309H150.589V60.9199H143.253ZM153.114 60.9199V48.9199H157.169C158.106 48.9199 158.876 49.0801 159.478 49.4004C160.079 49.7168 160.524 50.1523 160.813 50.707C161.103 51.2617 161.247 51.8926 161.247 52.5996C161.247 53.3066 161.103 53.9336 160.813 54.4805C160.524 55.0273 160.081 55.457 159.483 55.7695C158.886 56.0781 158.122 56.2324 157.192 56.2324H153.911V54.9199H157.146C157.786 54.9199 158.302 54.8262 158.692 54.6387C159.087 54.4512 159.372 54.1855 159.548 53.8418C159.728 53.4941 159.817 53.0801 159.817 52.5996C159.817 52.1191 159.728 51.6992 159.548 51.3398C159.368 50.9805 159.081 50.7031 158.687 50.5078C158.292 50.3086 157.771 50.209 157.122 50.209H154.567V60.9199H153.114ZM158.763 55.5293L161.716 60.9199H160.028L157.122 55.5293H158.763ZM165.122 48.9199V60.9199H163.668V48.9199H165.122ZM177.551 48.9199V60.9199H176.145L169.605 51.498H169.488V60.9199H168.035V48.9199H169.441L176.004 58.3652H176.121V48.9199H177.551ZM188.662 52.6699C188.533 52.2754 188.363 51.9219 188.152 51.6094C187.945 51.293 187.697 51.0234 187.408 50.8008C187.123 50.5781 186.798 50.4082 186.435 50.291C186.072 50.1738 185.673 50.1152 185.24 50.1152C184.529 50.1152 183.882 50.2988 183.3 50.666C182.718 51.0332 182.255 51.5742 181.912 52.2891C181.568 53.0039 181.396 53.8809 181.396 54.9199C181.396 55.959 181.57 56.8359 181.917 57.5508C182.265 58.2656 182.736 58.8066 183.33 59.1738C183.923 59.541 184.591 59.7246 185.333 59.7246C186.021 59.7246 186.626 59.5781 187.15 59.2852C187.677 58.9883 188.087 58.5703 188.38 58.0312C188.677 57.4883 188.826 56.8496 188.826 56.1152L189.271 56.209H185.662V54.9199H190.232V56.209C190.232 57.1973 190.021 58.0566 189.599 58.7871C189.181 59.5176 188.603 60.084 187.865 60.4863C187.13 60.8848 186.287 61.084 185.333 61.084C184.271 61.084 183.337 60.834 182.533 60.334C181.732 59.834 181.107 59.123 180.658 58.2012C180.212 57.2793 179.99 56.1855 179.99 54.9199C179.99 53.9707 180.117 53.1172 180.371 52.3594C180.628 51.5977 180.992 50.9492 181.46 50.4141C181.929 49.8789 182.484 49.4688 183.125 49.1836C183.765 48.8984 184.47 48.7559 185.24 48.7559C185.873 48.7559 186.462 48.8516 187.009 49.043C187.56 49.2305 188.05 49.498 188.48 49.8457C188.914 50.1895 189.275 50.6016 189.564 51.082C189.853 51.5586 190.052 52.0879 190.162 52.6699H188.662ZM197.361 60.9199V48.9199H201.416C202.357 48.9199 203.127 49.0898 203.725 49.4297C204.326 49.7656 204.771 50.2207 205.061 50.7949C205.35 51.3691 205.494 52.0098 205.494 52.7168C205.494 53.4238 205.35 54.0664 205.061 54.6445C204.775 55.2227 204.334 55.6836 203.736 56.0273C203.139 56.3672 202.373 56.5371 201.439 56.5371H198.533V55.248H201.393C202.037 55.248 202.555 55.1367 202.945 54.9141C203.336 54.6914 203.619 54.3906 203.795 54.0117C203.975 53.6289 204.064 53.1973 204.064 52.7168C204.064 52.2363 203.975 51.8066 203.795 51.4277C203.619 51.0488 203.334 50.752 202.939 50.5371C202.545 50.3184 202.021 50.209 201.369 50.209H198.814V60.9199H197.361ZM208.327 48.9199L211.89 59.0215H212.03L215.593 48.9199H217.116L212.71 60.9199H211.21L206.804 48.9199H208.327ZM218.329 50.209V48.9199H227.329V50.209H223.556V60.9199H222.103V50.209H218.329ZM234.212 60.9199V48.9199H235.666V59.6309H241.244V60.9199H234.212ZM241.242 50.209V48.9199H250.242V50.209H246.469V60.9199H245.016V50.209H241.242ZM256.188 60.9199H252.485V48.9199H256.352C257.516 48.9199 258.512 49.1602 259.34 49.6406C260.168 50.1172 260.803 50.8027 261.245 51.6973C261.686 52.5879 261.907 53.6543 261.907 54.8965C261.907 56.1465 261.684 57.2227 261.239 58.125C260.793 59.0234 260.145 59.7148 259.293 60.1992C258.442 60.6797 257.407 60.9199 256.188 60.9199ZM253.938 59.6309H256.094C257.086 59.6309 257.909 59.4395 258.561 59.0566C259.213 58.6738 259.7 58.1289 260.02 57.4219C260.34 56.7148 260.5 55.873 260.5 54.8965C260.5 53.9277 260.342 53.0937 260.026 52.3945C259.709 51.6914 259.237 51.1523 258.608 50.7773C257.979 50.3984 257.196 50.209 256.258 50.209H253.938V59.6309Z" fill="white"/>
<path d="M17.9016 7.2002C17.5016 7.5002 17.0016 7.8002 16.6016 8.1002C17.0508 7.82385 17.4848 7.52341 17.9016 7.2002Z" fill="white"/>
<path d="M20.6008 5.2002C20.212 5.58774 19.7751 5.92381 19.3008 6.2002L20.6008 5.2002Z" fill="white"/>
<path d="M46.8984 37.5004V37.4004C46.9984 37.4004 46.9984 37.4004 46.8984 37.5004Z" fill="white"/>
<path d="M47.4991 28.4002V28.2002C47.4857 28.2132 47.4752 28.2288 47.468 28.246C47.4607 28.2631 47.457 28.2816 47.457 28.3002C47.457 28.3188 47.4607 28.3373 47.468 28.3544C47.4752 28.3716 47.4857 28.3872 47.4991 28.4002Z" fill="white"/>
<path opacity="0.3" d="M47.6992 34.1004C47.6992 33.9004 47.7992 33.6004 47.7992 33.4004C47.8077 33.6378 47.7739 33.8748 47.6992 34.1004Z" fill="white"/>
<path opacity="0.3" d="M47.9013 32.0004V30.9004C47.8506 31.2653 47.8506 31.6355 47.9013 32.0004Z" fill="white"/>
<path opacity="0.3" d="M38.1016 16.8008C42.0276 18.6708 45.1002 21.9577 46.7016 26.0008C45.9548 23.9708 44.8092 22.111 43.3321 20.5309C41.8551 18.9508 40.0766 17.6825 38.1016 16.8008Z" fill="white"/>
<path opacity="0.3" d="M45.6992 40.3004C46.1924 39.3617 46.6266 38.3931 46.9992 37.4004C46.6457 38.4009 46.2109 39.3708 45.6992 40.3004Z" fill="white"/>
<path opacity="0.3" d="M47.3008 36.4004C47.4152 36.0784 47.4826 35.7416 47.5008 35.4004C47.4731 35.7403 47.406 36.0759 47.3008 36.4004Z" fill="white"/>
<path opacity="0.3" d="M47.7 29.5004C47.6 29.1004 47.6 28.8004 47.5 28.4004C47.5088 28.7753 47.5763 29.1464 47.7 29.5004Z" fill="white"/>
<path opacity="0.3" d="M47.4016 28.2002C47.3016 27.9002 47.2016 27.5002 47.1016 27.2002C47.2337 27.523 47.3342 27.8579 47.4016 28.2002Z" fill="white"/>
<path opacity="0.3" d="M47.0992 27.2006C47.0106 26.8192 46.8763 26.4498 46.6992 26.1006C46.892 26.4428 47.0271 26.8145 47.0992 27.2006Z" fill="white"/>
<path opacity="0.3" d="M47.7992 30.6006C47.7992 30.3006 47.6992 29.9006 47.6992 29.6006C47.6992 30.0006 47.7992 30.3006 47.7992 30.6006Z" fill="white"/>
<path d="M61.3 52.2C61.3148 54.5185 61.0801 56.8318 60.6 59.1C59.8153 59.9179 58.9804 60.6861 58.1 61.4C64.9622 55.5837 69.3056 47.3361 70.2191 38.3871C71.1327 29.4381 68.5454 20.483 63 13.4C33.7 -7.09997 0 17.4 0 17.4H32.4C34.9504 17.419 37.4696 17.9636 39.8 19C46.2072 21.8664 51.6472 26.527 55.4626 32.4187C59.278 38.3103 61.3054 45.1809 61.3 52.2Z" fill="white"/>
<path d="M44.9 47.1004C43.2625 48.7489 41.315 50.0572 39.1697 50.9496C37.0243 51.8421 34.7236 52.3012 32.4 52.3004H25V28.4004L5.5 59.0004V69.8004H16.6C28.9 65.7004 40 53.3004 44.9 47.1004Z" fill="white"/>
<path d="M63 13.4L61.8 11.9C59.6894 9.49063 57.2682 7.37212 54.6 5.6C54.5 5.6 54.5 5.5 54.4 5.5C53.9556 5.19608 53.4874 4.92855 53 4.7C52.9 4.6 52.8 4.6 52.7 4.5C52.2542 4.22706 51.7858 3.99287 51.3 3.8C51.2 3.7 51.1 3.7 51 3.6C50.4948 3.30705 49.958 3.07222 49.4 2.9C49.3 2.9 49.3 2.9 49.2 2.8C48 2.3 46.8 1.9 45.6 1.5C45.4 1.5 45.3 1.4 45.1 1.4C44.7 1.3 44.2 1.1 43.7 1C43.5111 0.918556 43.3051 0.884238 43.1 0.9L41.9 0.6C41.7 0.6 41.4 0.5 41.2 0.5C40.8 0.4 40.4 0.4 40 0.3C39.8 0.3 39.5 0.2 39.3 0.2C38.9 0.2 38.4 0.1 38 0.1H37.4C36.8 0.1 36.1 0 35.4 0H11.1L0 17.3C0 17.3 33.7 -7.2 63 13.4Z" fill="white"/>
<path d="M39.0992 69.6006C39.2992 69.6006 39.4992 69.5006 39.6992 69.5006C40.1059 69.483 40.5089 69.4159 40.8992 69.3006C41.0992 69.3006 41.2992 69.2006 41.4992 69.2006C41.8992 69.1006 42.2992 69.1006 42.6992 69.0006C42.8992 69.0006 42.9992 68.9006 43.1992 68.9006L44.3992 68.6006C44.5992 68.6006 44.6992 68.5006 44.8992 68.5006C45.313 68.4127 45.7155 68.2785 46.0992 68.1006C46.1992 68.1006 46.3992 68.0006 46.4992 68.0006C46.8992 67.9006 47.3992 67.7006 47.7992 67.6006C47.8992 67.6006 47.9992 67.5006 48.0992 67.5006C48.4992 67.3006 48.9992 67.2006 49.3992 67.0006C49.4992 67.0006 49.5992 66.9006 49.6992 66.9006C50.0992 66.7006 50.5992 66.5006 50.9992 66.3006C51.0992 66.3006 51.0992 66.2006 51.1992 66.2006C51.6992 66.0006 52.0992 65.7006 52.4992 65.5006L52.5992 65.4006C53.0992 65.1006 53.4992 64.9006 53.9992 64.6006C54.0257 64.6006 54.0512 64.5901 54.0699 64.5713C54.0887 64.5525 54.0992 64.5271 54.0992 64.5006C54.5992 64.2006 54.9992 63.9006 55.4992 63.6006H55.5992C56.0735 63.3242 56.5104 62.9881 56.8992 62.6006C57.3567 62.2635 57.791 61.896 58.1992 61.5006C59.0796 60.7867 59.9145 60.0185 60.6992 59.2006C61.1401 56.9264 61.3744 54.617 61.3992 52.3006C61.4047 45.2814 59.3772 38.4109 55.5618 32.5192C51.7464 26.6276 46.3064 21.967 39.8992 19.1006C43.9993 21.0244 47.1907 24.4669 48.7992 28.7006C48.8992 29.1006 49.0992 29.5006 49.1992 29.8006V29.9006C49.2992 30.2006 49.3992 30.6006 49.4992 30.9006V31.1006C49.6055 31.4589 49.6726 31.8278 49.6992 32.2006V32.3006C49.6992 32.6006 49.7992 33.0006 49.7992 33.3006V36.2006C49.8154 36.4711 49.7815 36.7424 49.6992 37.0006V37.3006C49.6715 37.6405 49.6044 37.9761 49.4992 38.3006V38.4006C49.3844 38.7568 49.3172 39.1267 49.2992 39.5006V39.6006L48.9992 40.5006V40.6006C48.5992 41.6006 48.1992 42.6006 47.6992 43.6006C47.1477 44.5555 46.5118 45.4591 45.7992 46.3006L45.6992 46.4006C45.4992 46.7006 45.1992 46.9006 44.9992 47.2006C40.0992 53.4006 28.9992 65.9006 16.6992 69.9006H37.7992C38.2016 69.6962 38.6479 69.5932 39.0992 69.6006Z" fill="white"/>
</svg>
