<svg width="267" height="70" viewBox="0 0 267 70" fill="none" xmlns="http://www.w3.org/2000/svg">
<path d="M90.9766 38.3604H81.5504V7.8149H91.3942C94.3572 7.8149 96.8928 8.4264 99.0007 9.64941C101.109 10.8625 102.724 12.6075 103.848 14.8845C104.972 17.1515 105.533 19.866 105.533 23.028C105.533 26.2098 104.967 28.9491 103.833 31.246C102.7 33.5329 101.049 35.2929 98.8814 36.5258C96.7138 37.7488 94.0788 38.3604 90.9766 38.3604ZM85.2493 35.0791H90.7379C93.2635 35.0791 95.3565 34.5919 97.017 33.6175C98.6776 32.643 99.9155 31.2559 100.731 29.4562C101.546 27.6565 101.954 25.5138 101.954 23.028C101.954 20.5621 101.551 18.4392 100.746 16.6594C99.9403 14.8696 98.7372 13.4974 97.1364 12.5429C95.5355 11.5784 93.5419 11.0961 91.1555 11.0961H85.2493V35.0791ZM111.738 38.3604V7.8149H130.173V11.0961H115.437V21.4172H129.218V24.6984H115.437V35.0791H130.411V38.3604H111.738ZM161.419 17.3604H157.72C157.501 16.2964 157.119 15.3618 156.572 14.5564C156.035 13.751 155.379 13.0748 154.603 12.528C153.837 11.9711 152.987 11.5535 152.053 11.2751C151.118 10.9967 150.143 10.8575 149.129 10.8575C147.28 10.8575 145.604 11.3248 144.103 12.2595C142.612 13.1942 141.423 14.5713 140.538 16.3909C139.663 18.2105 139.226 20.4427 139.226 23.0876C139.226 25.7325 139.663 27.9648 140.538 29.7844C141.423 31.604 142.612 32.9811 144.103 33.9157C145.604 34.8504 147.28 35.3177 149.129 35.3177C150.143 35.3177 151.118 35.1785 152.053 34.9001C152.987 34.6217 153.837 34.2091 154.603 33.6622C155.379 33.1054 156.035 32.4243 156.572 31.6189C157.119 30.8035 157.501 29.8689 157.72 28.8149H161.419C161.141 30.376 160.634 31.773 159.898 33.0059C159.162 34.2389 158.247 35.2879 157.153 36.153C156.06 37.0081 154.832 37.6594 153.469 38.1068C152.117 38.5542 150.67 38.778 149.129 38.778C146.524 38.778 144.207 38.1416 142.179 36.8689C140.151 35.5961 138.555 33.7865 137.391 31.4399C136.228 29.0933 135.646 26.3092 135.646 23.0876C135.646 19.866 136.228 17.0819 137.391 14.7354C138.555 12.3888 140.151 10.5791 142.179 9.30637C144.207 8.03365 146.524 7.39728 149.129 7.39728C150.67 7.39728 152.117 7.621 153.469 8.06845C154.832 8.51589 156.06 9.17214 157.153 10.0372C158.247 10.8923 159.162 11.9363 159.898 13.1693C160.634 14.3923 161.141 15.7893 161.419 17.3604ZM171.095 7.8149V38.3604H167.396V7.8149H171.095ZM195.216 15.4513C195.037 13.9399 194.311 12.7666 193.038 11.9314C191.766 11.0961 190.205 10.6785 188.355 10.6785C187.003 10.6785 185.82 10.8973 184.805 11.3348C183.801 11.7723 183.016 12.3738 182.449 13.1395C181.892 13.9051 181.614 14.7751 181.614 15.7496C181.614 16.5649 181.808 17.2659 182.195 17.8525C182.593 18.4292 183.1 18.9115 183.717 19.2993C184.333 19.6771 184.979 19.9903 185.656 20.2389C186.332 20.4775 186.953 20.6714 187.52 20.8206L190.622 21.6558C191.418 21.8646 192.303 22.153 193.277 22.5209C194.261 22.8888 195.201 23.3909 196.096 24.0273C197.001 24.6537 197.746 25.4591 198.333 26.4434C198.92 27.4278 199.213 28.6359 199.213 30.0677C199.213 31.7183 198.781 33.2098 197.915 34.5422C197.06 35.8746 195.808 36.9335 194.157 37.719C192.516 38.5045 190.523 38.8973 188.176 38.8973C185.989 38.8973 184.094 38.5443 182.494 37.8383C180.903 37.1324 179.65 36.148 178.735 34.8852C177.83 33.6224 177.318 32.1558 177.199 30.4854H181.017C181.116 31.6388 181.504 32.5933 182.18 33.349C182.866 34.0947 183.732 34.6515 184.776 35.0194C185.83 35.3774 186.963 35.5564 188.176 35.5564C189.588 35.5564 190.856 35.3277 191.979 34.8703C193.103 34.403 193.993 33.7567 194.649 32.9314C195.305 32.0961 195.634 31.1217 195.634 30.0081C195.634 28.9939 195.35 28.1686 194.783 27.5322C194.217 26.8959 193.471 26.3788 192.546 25.9811C191.621 25.5834 190.622 25.2354 189.548 24.9371L185.79 23.8632C183.403 23.1771 181.514 22.1977 180.122 20.925C178.73 19.6523 178.034 17.9868 178.034 15.9285C178.034 14.2183 178.496 12.7268 179.421 11.4541C180.356 10.1714 181.609 9.17711 183.18 8.47115C184.761 7.75524 186.526 7.39728 188.474 7.39728C190.443 7.39728 192.193 7.75027 193.724 8.45623C195.256 9.15225 196.469 10.1068 197.364 11.3199C198.268 12.5329 198.746 13.9101 198.795 15.4513H195.216ZM208.993 7.8149V38.3604H205.295V7.8149H208.993ZM217.663 7.8149L226.731 33.528H227.089L236.157 7.8149H240.035L228.819 38.3604H225.001L213.785 7.8149H217.663ZM244.793 38.3604V7.8149H263.227V11.0961H248.491V21.4172H262.273V24.6984H248.491V35.0791H263.466V38.3604H244.793Z" fill="#0168CA"/>
<path d="M82.4531 61V49H89.6953V50.2891H83.9063V54.3437H89.3203V55.6328H83.9063V59.7109H89.7891V61H82.4531ZM101.83 49V61H100.424L93.8848 51.5781H93.7676V61H92.3145V49H93.7207L100.283 58.4453H100.4V49H101.83ZM112.941 52.75C112.812 52.3555 112.642 52.002 112.431 51.6895C112.224 51.373 111.976 51.1035 111.687 50.8809C111.402 50.6582 111.078 50.4883 110.714 50.3711C110.351 50.2539 109.953 50.1953 109.519 50.1953C108.808 50.1953 108.162 50.3789 107.58 50.7461C106.998 51.1133 106.535 51.6543 106.191 52.3691C105.847 53.084 105.675 53.9609 105.675 55C105.675 56.0391 105.849 56.916 106.197 57.6309C106.544 58.3457 107.015 58.8867 107.609 59.2539C108.203 59.6211 108.871 59.8047 109.613 59.8047C110.3 59.8047 110.906 59.6582 111.429 59.3652C111.957 59.0684 112.367 58.6504 112.66 58.1113C112.957 57.5684 113.105 56.9297 113.105 56.1953L113.55 56.2891H109.941V55H114.511V56.2891C114.511 57.2773 114.3 58.1367 113.878 58.8672C113.46 59.5977 112.882 60.1641 112.144 60.5664C111.41 60.9648 110.566 61.1641 109.613 61.1641C108.55 61.1641 107.617 60.9141 106.812 60.4141C106.011 59.9141 105.386 59.2031 104.937 58.2812C104.492 57.3594 104.269 56.2656 104.269 55C104.269 54.0508 104.396 53.1973 104.65 52.4395C104.908 51.6777 105.271 51.0293 105.74 50.4941C106.208 49.959 106.763 49.5488 107.404 49.2637C108.044 48.9785 108.75 48.8359 109.519 48.8359C110.152 48.8359 110.742 48.9316 111.289 49.123C111.839 49.3105 112.33 49.5781 112.759 49.9258C113.193 50.2695 113.554 50.6816 113.843 51.1621C114.132 51.6387 114.332 52.168 114.441 52.75H112.941ZM118.453 49V61H117V49H118.453ZM130.882 49V61H129.476L122.937 51.5781H122.82V61H121.367V49H122.773L129.335 58.4453H129.453V49H130.882ZM133.79 61V49H141.032V50.2891H135.243V54.3437H140.657V55.6328H135.243V59.7109H141.126V61H133.79ZM143.651 61V49H150.894V50.2891H145.104V54.3437H150.519V55.6328H145.104V59.7109H150.987V61H143.651ZM153.513 61V49H157.567C158.505 49 159.274 49.1602 159.876 49.4805C160.478 49.7969 160.923 50.2324 161.212 50.7871C161.501 51.3418 161.646 51.9727 161.646 52.6797C161.646 53.3867 161.501 54.0137 161.212 54.5605C160.923 55.1074 160.479 55.5371 159.882 55.8496C159.284 56.1582 158.521 56.3125 157.591 56.3125H154.31V55H157.544C158.185 55 158.7 54.9062 159.091 54.7187C159.485 54.5312 159.771 54.2656 159.946 53.9219C160.126 53.5742 160.216 53.1602 160.216 52.6797C160.216 52.1992 160.126 51.7793 159.946 51.4199C159.767 51.0605 159.479 50.7832 159.085 50.5879C158.69 50.3887 158.169 50.2891 157.521 50.2891H154.966V61H153.513ZM159.161 55.6094L162.114 61H160.427L157.521 55.6094H159.161ZM165.52 49V61H164.067V49H165.52ZM177.949 49V61H176.543L170.004 51.5781H169.887V61H168.434V49H169.84L176.402 58.4453H176.52V49H177.949ZM189.06 52.75C188.931 52.3555 188.761 52.002 188.55 51.6895C188.343 51.373 188.095 51.1035 187.806 50.8809C187.521 50.6582 187.197 50.4883 186.833 50.3711C186.47 50.2539 186.072 50.1953 185.638 50.1953C184.927 50.1953 184.281 50.3789 183.699 50.7461C183.117 51.1133 182.654 51.6543 182.31 52.3691C181.966 53.084 181.794 53.9609 181.794 55C181.794 56.0391 181.968 56.916 182.316 57.6309C182.664 58.3457 183.134 58.8867 183.728 59.2539C184.322 59.6211 184.99 59.8047 185.732 59.8047C186.419 59.8047 187.025 59.6582 187.548 59.3652C188.076 59.0684 188.486 58.6504 188.779 58.1113C189.076 57.5684 189.224 56.9297 189.224 56.1953L189.669 56.2891H186.06V55H190.63V56.2891C190.63 57.2773 190.419 58.1367 189.998 58.8672C189.58 59.5977 189.001 60.1641 188.263 60.5664C187.529 60.9648 186.685 61.1641 185.732 61.1641C184.669 61.1641 183.736 60.9141 182.931 60.4141C182.13 59.9141 181.505 59.2031 181.056 58.2812C180.611 57.3594 180.388 56.2656 180.388 55C180.388 54.0508 180.515 53.1973 180.769 52.4395C181.027 51.6777 181.39 51.0293 181.859 50.4941C182.328 49.959 182.882 49.5488 183.523 49.2637C184.164 48.9785 184.869 48.8359 185.638 48.8359C186.271 48.8359 186.861 48.9316 187.408 49.123C187.958 49.3105 188.449 49.5781 188.878 49.9258C189.312 50.2695 189.673 50.6816 189.962 51.1621C190.251 51.6387 190.451 52.168 190.56 52.75H189.06ZM197.76 61V49H201.814C202.756 49 203.525 49.1699 204.123 49.5098C204.725 49.8457 205.17 50.3008 205.459 50.875C205.748 51.4492 205.893 52.0898 205.893 52.7969C205.893 53.5039 205.748 54.1465 205.459 54.7246C205.174 55.3027 204.732 55.7637 204.135 56.1074C203.537 56.4473 202.771 56.6172 201.838 56.6172H198.932V55.3281H201.791C202.436 55.3281 202.953 55.2168 203.344 54.9941C203.734 54.7715 204.018 54.4707 204.193 54.0918C204.373 53.709 204.463 53.2773 204.463 52.7969C204.463 52.3164 204.373 51.8867 204.193 51.5078C204.018 51.1289 203.732 50.832 203.338 50.6172C202.943 50.3984 202.42 50.2891 201.768 50.2891H199.213V61H197.76ZM208.726 49L212.288 59.1016H212.429L215.991 49H217.515L213.108 61H211.608L207.202 49H208.726ZM218.728 50.2891V49H227.728V50.2891H223.954V61H222.501V50.2891H218.728ZM234.611 61V49H236.064V59.7109H241.642V61H234.611ZM241.641 50.2891V49H250.641V50.2891H246.867V61H245.414V50.2891H241.641ZM256.586 61H252.883V49H256.75C257.915 49 258.911 49.2402 259.739 49.7207C260.567 50.1973 261.202 50.8828 261.643 51.7773C262.084 52.668 262.305 53.7344 262.305 54.9766C262.305 56.2266 262.083 57.3027 261.637 58.2051C261.192 59.1035 260.543 59.7949 259.692 60.2793C258.84 60.7598 257.805 61 256.586 61ZM254.336 59.7109H256.493C257.485 59.7109 258.307 59.5195 258.959 59.1367C259.612 58.7539 260.098 58.209 260.418 57.502C260.739 56.7949 260.899 55.9531 260.899 54.9766C260.899 54.0078 260.741 53.1738 260.424 52.4746C260.108 51.7715 259.635 51.2324 259.006 50.8574C258.377 50.4785 257.594 50.2891 256.657 50.2891H254.336V59.7109Z" fill="#0168CA"/>
<path d="M17.9016 7.2002C17.5016 7.5002 17.0016 7.8002 16.6016 8.1002C17.0508 7.82385 17.4848 7.52341 17.9016 7.2002Z" fill="url(#paint0_linear_141_42)"/>
<path d="M20.6008 5.2002C20.212 5.58774 19.7751 5.92381 19.3008 6.2002L20.6008 5.2002Z" fill="url(#paint1_linear_141_42)"/>
<path d="M46.8984 37.5004V37.4004C46.9984 37.4004 46.9984 37.4004 46.8984 37.5004Z" fill="url(#paint2_linear_141_42)"/>
<path d="M47.4991 28.4002V28.2002C47.4857 28.2132 47.4752 28.2288 47.468 28.246C47.4607 28.2631 47.457 28.2816 47.457 28.3002C47.457 28.3188 47.4607 28.3373 47.468 28.3544C47.4752 28.3716 47.4857 28.3872 47.4991 28.4002Z" fill="url(#paint3_linear_141_42)"/>
<path opacity="0.3" d="M47.6992 34.1004C47.6992 33.9004 47.7992 33.6004 47.7992 33.4004C47.8077 33.6378 47.7739 33.8748 47.6992 34.1004Z" fill="white"/>
<path opacity="0.3" d="M47.9013 32.0004V30.9004C47.8506 31.2653 47.8506 31.6355 47.9013 32.0004Z" fill="white"/>
<path opacity="0.3" d="M38.1016 16.8008C42.0276 18.6708 45.1002 21.9577 46.7016 26.0008C45.9548 23.9708 44.8092 22.111 43.3321 20.5309C41.8551 18.9508 40.0766 17.6825 38.1016 16.8008Z" fill="white"/>
<path opacity="0.3" d="M45.6992 40.3004C46.1924 39.3617 46.6266 38.3931 46.9992 37.4004C46.6457 38.4009 46.2109 39.3708 45.6992 40.3004Z" fill="white"/>
<path opacity="0.3" d="M47.3008 36.4004C47.4152 36.0784 47.4826 35.7416 47.5008 35.4004C47.4731 35.7403 47.406 36.0759 47.3008 36.4004Z" fill="white"/>
<path opacity="0.3" d="M47.7 29.5004C47.6 29.1004 47.6 28.8004 47.5 28.4004C47.5088 28.7753 47.5763 29.1464 47.7 29.5004Z" fill="white"/>
<path opacity="0.3" d="M47.4016 28.2002C47.3016 27.9002 47.2016 27.5002 47.1016 27.2002C47.2337 27.523 47.3342 27.8579 47.4016 28.2002Z" fill="white"/>
<path opacity="0.3" d="M47.0992 27.2006C47.0106 26.8192 46.8763 26.4498 46.6992 26.1006C46.892 26.4428 47.0271 26.8145 47.0992 27.2006Z" fill="white"/>
<path opacity="0.3" d="M47.7992 30.6006C47.7992 30.3006 47.6992 29.9006 47.6992 29.6006C47.6992 30.0006 47.7992 30.3006 47.7992 30.6006Z" fill="white"/>
<path d="M61.3 52.2C61.3148 54.5185 61.0801 56.8318 60.6 59.1C59.8153 59.9179 58.9804 60.6861 58.1 61.4C64.9622 55.5837 69.3056 47.3361 70.2191 38.3871C71.1327 29.4381 68.5454 20.483 63 13.4C33.7 -7.09997 0 17.4 0 17.4H32.4C34.9504 17.419 37.4696 17.9636 39.8 19C46.2072 21.8664 51.6472 26.527 55.4626 32.4187C59.278 38.3103 61.3054 45.1809 61.3 52.2Z" fill="url(#paint4_linear_141_42)"/>
<path d="M44.9 47.1004C43.2625 48.7489 41.315 50.0572 39.1697 50.9496C37.0243 51.8421 34.7236 52.3012 32.4 52.3004H25V28.4004L5.5 59.0004V69.8004H16.6C28.9 65.7004 40 53.3004 44.9 47.1004Z" fill="url(#paint5_radial_141_42)"/>
<path d="M63 13.4L61.8 11.9C59.6894 9.49063 57.2682 7.37212 54.6 5.6C54.5 5.6 54.5 5.5 54.4 5.5C53.9556 5.19608 53.4874 4.92855 53 4.7C52.9 4.6 52.8 4.6 52.7 4.5C52.2542 4.22706 51.7858 3.99287 51.3 3.8C51.2 3.7 51.1 3.7 51 3.6C50.4948 3.30705 49.958 3.07222 49.4 2.9C49.3 2.9 49.3 2.9 49.2 2.8C48 2.3 46.8 1.9 45.6 1.5C45.4 1.5 45.3 1.4 45.1 1.4C44.7 1.3 44.2 1.1 43.7 1C43.5111 0.918556 43.3051 0.884238 43.1 0.9L41.9 0.6C41.7 0.6 41.4 0.5 41.2 0.5C40.8 0.4 40.4 0.4 40 0.3C39.8 0.3 39.5 0.2 39.3 0.2C38.9 0.2 38.4 0.1 38 0.1H37.4C36.8 0.1 36.1 0 35.4 0H11.1L0 17.3C0 17.3 33.7 -7.2 63 13.4Z" fill="url(#paint6_linear_141_42)"/>
<path d="M39.0992 69.6006C39.2992 69.6006 39.4992 69.5006 39.6992 69.5006C40.1059 69.483 40.5089 69.4159 40.8992 69.3006C41.0992 69.3006 41.2992 69.2006 41.4992 69.2006C41.8992 69.1006 42.2992 69.1006 42.6992 69.0006C42.8992 69.0006 42.9992 68.9006 43.1992 68.9006L44.3992 68.6006C44.5992 68.6006 44.6992 68.5006 44.8992 68.5006C45.313 68.4127 45.7155 68.2785 46.0992 68.1006C46.1992 68.1006 46.3992 68.0006 46.4992 68.0006C46.8992 67.9006 47.3992 67.7006 47.7992 67.6006C47.8992 67.6006 47.9992 67.5006 48.0992 67.5006C48.4992 67.3006 48.9992 67.2006 49.3992 67.0006C49.4992 67.0006 49.5992 66.9006 49.6992 66.9006C50.0992 66.7006 50.5992 66.5006 50.9992 66.3006C51.0992 66.3006 51.0992 66.2006 51.1992 66.2006C51.6992 66.0006 52.0992 65.7006 52.4992 65.5006L52.5992 65.4006C53.0992 65.1006 53.4992 64.9006 53.9992 64.6006C54.0257 64.6006 54.0512 64.5901 54.0699 64.5713C54.0887 64.5525 54.0992 64.5271 54.0992 64.5006C54.5992 64.2006 54.9992 63.9006 55.4992 63.6006H55.5992C56.0735 63.3242 56.5104 62.9881 56.8992 62.6006C57.3567 62.2635 57.791 61.896 58.1992 61.5006C59.0796 60.7867 59.9145 60.0185 60.6992 59.2006C61.1401 56.9264 61.3744 54.617 61.3992 52.3006C61.4047 45.2814 59.3772 38.4109 55.5618 32.5192C51.7464 26.6276 46.3064 21.967 39.8992 19.1006C43.9993 21.0244 47.1907 24.4669 48.7992 28.7006C48.8992 29.1006 49.0992 29.5006 49.1992 29.8006V29.9006C49.2992 30.2006 49.3992 30.6006 49.4992 30.9006V31.1006C49.6055 31.4589 49.6726 31.8278 49.6992 32.2006V32.3006C49.6992 32.6006 49.7992 33.0006 49.7992 33.3006V36.2006C49.8154 36.4711 49.7815 36.7424 49.6992 37.0006V37.3006C49.6715 37.6405 49.6044 37.9761 49.4992 38.3006V38.4006C49.3844 38.7568 49.3172 39.1267 49.2992 39.5006V39.6006L48.9992 40.5006V40.6006C48.5992 41.6006 48.1992 42.6006 47.6992 43.6006C47.1477 44.5555 46.5118 45.4591 45.7992 46.3006L45.6992 46.4006C45.4992 46.7006 45.1992 46.9006 44.9992 47.2006C40.0992 53.4006 28.9992 65.9006 16.6992 69.9006H37.7992C38.2016 69.6962 38.6479 69.5932 39.0992 69.6006Z" fill="url(#paint7_linear_141_42)"/>
<defs>
<linearGradient id="paint0_linear_141_42" x1="-35.3884" y1="7.6502" x2="32.4016" y2="7.6502" gradientUnits="userSpaceOnUse">
<stop stop-color="#EAA92B"/>
<stop offset="0.04" stop-color="#E99B30"/>
<stop offset="0.21" stop-color="#E36644"/>
<stop offset="0.36" stop-color="#DF3C54"/>
<stop offset="0.5" stop-color="#DC1E5F"/>
<stop offset="0.62" stop-color="#DB0C66"/>
<stop offset="0.7" stop-color="#DA0568"/>
</linearGradient>
<linearGradient id="paint1_linear_141_42" x1="-35.3793" y1="5.7002" x2="32.4008" y2="5.7002" gradientUnits="userSpaceOnUse">
<stop stop-color="#EAA92B"/>
<stop offset="0.04" stop-color="#E99B30"/>
<stop offset="0.21" stop-color="#E36644"/>
<stop offset="0.36" stop-color="#DF3C54"/>
<stop offset="0.5" stop-color="#DC1E5F"/>
<stop offset="0.62" stop-color="#DB0C66"/>
<stop offset="0.7" stop-color="#DA0568"/>
</linearGradient>
<linearGradient id="paint2_linear_141_42" x1="-0.271564" y1="37.4504" x2="67.6384" y2="37.4504" gradientUnits="userSpaceOnUse">
<stop stop-color="#EAA92B"/>
<stop offset="0.04" stop-color="#E99B30"/>
<stop offset="0.21" stop-color="#E36644"/>
<stop offset="0.36" stop-color="#DF3C54"/>
<stop offset="0.5" stop-color="#DC1E5F"/>
<stop offset="0.62" stop-color="#DB0C66"/>
<stop offset="0.7" stop-color="#DA0568"/>
</linearGradient>
<linearGradient id="paint3_linear_141_42" x1="-0.429215" y1="28.3002" x2="67.7083" y2="28.3002" gradientUnits="userSpaceOnUse">
<stop stop-color="#EAA92B"/>
<stop offset="0.04" stop-color="#E99B30"/>
<stop offset="0.21" stop-color="#E36644"/>
<stop offset="0.36" stop-color="#DF3C54"/>
<stop offset="0.5" stop-color="#DC1E5F"/>
<stop offset="0.62" stop-color="#DB0C66"/>
<stop offset="0.7" stop-color="#DA0568"/>
</linearGradient>
<linearGradient id="paint4_linear_141_42" x1="14.82" y1="20.97" x2="101.64" y2="50.29" gradientUnits="userSpaceOnUse">
<stop stop-color="#5EE97D"/>
<stop offset="0.39" stop-color="#00BBDC"/>
<stop offset="0.68" stop-color="#014BC4"/>
</linearGradient>
<radialGradient id="paint5_radial_141_42" cx="0" cy="0" r="1" gradientUnits="userSpaceOnUse" gradientTransform="translate(-1.7254 39.77) rotate(-6.25724) scale(37.8173)">
<stop offset="0.03" stop-color="#ABEFC1"/>
<stop offset="0.48" stop-color="#00B7DB"/>
<stop offset="1" stop-color="#014BC4"/>
</radialGradient>
<linearGradient id="paint6_linear_141_42" x1="2.91" y1="9.06" x2="55.14" y2="5.45" gradientUnits="userSpaceOnUse">
<stop stop-color="#3DB197"/>
<stop offset="0.48" stop-color="#00B9DB"/>
<stop offset="1" stop-color="#014BC4"/>
</linearGradient>
<linearGradient id="paint7_linear_141_42" x1="19.8492" y1="48.3606" x2="61.4292" y2="40.0106" gradientUnits="userSpaceOnUse">
<stop offset="0.21" stop-color="#00BADC"/>
<stop offset="1" stop-color="#014BC4"/>
</linearGradient>
</defs>
</svg>
