<svg width="32" height="32" viewBox="0 0 32 32" fill="none" xmlns="http://www.w3.org/2000/svg">
<mask id="mask0_1_266" style="mask-type:alpha" maskUnits="userSpaceOnUse" x="0" y="0" width="32" height="32">
<rect width="32" height="32" fill="#D9D9D9"/>
</mask>
<g mask="url(#mask0_1_266)">
<path d="M1.97656 27.4615V24.4975C1.97656 23.8411 2.14835 23.2376 2.49193 22.6872C2.83553 22.1368 3.31502 21.7078 3.9304 21.4C5.03808 20.8394 6.2774 20.3761 7.64833 20.0103C9.01926 19.6445 10.462 19.4616 11.9765 19.4616C13.491 19.4616 14.9338 19.6445 16.3047 20.0103C17.6756 20.3761 18.9149 20.8394 20.0226 21.4C20.638 21.7078 21.1175 22.1368 21.4611 22.6872C21.8047 23.2376 21.9765 23.8411 21.9765 24.4975V27.4615H1.97656ZM3.9765 25.4615H19.9765V24.4975C19.9765 24.1932 19.894 23.9325 19.7291 23.7154C19.5641 23.4983 19.356 23.3214 19.1047 23.1846C18.2876 22.7675 17.2513 22.3761 15.9957 22.0103C14.7402 21.6445 13.4004 21.4615 11.9765 21.4615C10.5526 21.4615 9.21285 21.6445 7.9573 22.0103C6.70174 22.3761 5.66542 22.7675 4.84833 23.1846C4.59704 23.3214 4.38892 23.4983 4.22396 23.7154C4.05898 23.9325 3.9765 24.1932 3.9765 24.4975V25.4615ZM11.9765 17.3077C10.6723 17.3077 9.56842 16.856 8.665 15.9526C7.7616 15.0492 7.3099 13.9197 7.3099 12.5641H7.0022C6.82784 12.5641 6.68596 12.5094 6.57656 12.4C6.46716 12.2906 6.41246 12.1488 6.41246 11.9744C6.41246 11.8001 6.46716 11.6582 6.57656 11.5488C6.68596 11.4394 6.82784 11.3847 7.0022 11.3847H7.3099C7.32698 10.5471 7.52014 9.79026 7.88936 9.11421C8.25859 8.43814 8.78336 7.85823 9.4637 7.37448V8.64114C9.4637 8.8155 9.5184 8.95738 9.6278 9.06678C9.7372 9.17618 9.87907 9.23088 10.0534 9.23088C10.2278 9.23088 10.3697 9.17618 10.4791 9.06678C10.5885 8.95738 10.6432 8.8155 10.6432 8.64114V6.86678C10.8346 6.80011 11.0436 6.74583 11.2701 6.70394C11.4966 6.66208 11.7321 6.64114 11.9765 6.64114C12.2209 6.64114 12.4564 6.66208 12.6829 6.70394C12.9094 6.74583 13.1184 6.80011 13.3098 6.86678V8.64114C13.3098 8.8155 13.3645 8.95738 13.474 9.06678C13.5834 9.17618 13.7252 9.23088 13.8996 9.23088C14.074 9.23088 14.2158 9.17618 14.3252 9.06678C14.4346 8.95738 14.4893 8.8155 14.4893 8.64114V7.37448C15.1782 7.85823 15.7051 8.43814 16.0701 9.11421C16.435 9.79026 16.626 10.5471 16.6431 11.3847H16.9508C17.1252 11.3847 17.2671 11.4394 17.3765 11.5488C17.4859 11.6582 17.5406 11.8001 17.5406 11.9744C17.5406 12.1488 17.4859 12.2906 17.3765 12.4C17.2671 12.5094 17.1252 12.5641 16.9508 12.5641H16.6431C16.6431 13.9197 16.1914 15.0492 15.288 15.9526C14.3846 16.856 13.2808 17.3077 11.9765 17.3077ZM11.9765 15.3077C12.7269 15.3077 13.359 15.0509 13.8727 14.5372C14.3863 14.0236 14.6432 13.3915 14.6432 12.6411H9.30983C9.30983 13.3915 9.56667 14.0236 10.0804 14.5372C10.594 15.0509 11.2261 15.3077 11.9765 15.3077ZM22.0022 19.8974L21.8534 18.9231C21.703 18.8786 21.5517 18.818 21.3996 18.741C21.2475 18.6641 21.1116 18.5658 20.9919 18.4461L20.0842 18.8051L19.4945 17.759L20.2534 17.1436C20.2363 17.0599 20.2278 16.9804 20.2278 16.9051V16.4346C20.2278 16.3637 20.2363 16.2821 20.2534 16.1897L19.4945 15.5744L20.0842 14.5282L20.9919 14.8872C21.0979 14.7812 21.2304 14.6863 21.3893 14.6026C21.5483 14.5188 21.703 14.4547 21.8534 14.4103L22.0022 13.4359H23.1816L23.3303 14.4103C23.4808 14.4547 23.6355 14.5188 23.7945 14.6026C23.9534 14.6863 24.0859 14.7812 24.1919 14.8872L25.0996 14.5282L25.6893 15.5744L24.9303 16.1897C24.9474 16.2821 24.956 16.3637 24.956 16.4346V16.9051C24.956 16.9804 24.9474 17.0599 24.9303 17.1436L25.6893 17.759L25.0996 18.8051L24.1919 18.4461C24.0722 18.5658 23.9363 18.6641 23.7842 18.741C23.6321 18.818 23.4808 18.8786 23.3303 18.9231L23.1816 19.8974H22.0022ZM22.5919 17.7692C22.8927 17.7692 23.1517 17.6607 23.3688 17.4436C23.5859 17.2265 23.6945 16.9675 23.6945 16.6667C23.6945 16.3658 23.5859 16.1068 23.3688 15.8897C23.1517 15.6727 22.8927 15.5641 22.5919 15.5641C22.291 15.5641 22.0321 15.6727 21.815 15.8897C21.5979 16.1068 21.4893 16.3658 21.4893 16.6667C21.4893 16.9675 21.5979 17.2265 21.815 17.4436C22.0321 17.6607 22.291 17.7692 22.5919 17.7692ZM25.1458 12.9487L24.956 11.7282C24.7304 11.6701 24.5064 11.5782 24.2842 11.4525C24.062 11.3269 23.8757 11.176 23.7252 11L22.5304 11.441L21.7765 10.1487L22.7817 9.32821C22.7372 9.20857 22.7107 9.09831 22.7022 8.99744C22.6936 8.8966 22.6894 8.78634 22.6894 8.66668C22.6894 8.54701 22.6936 8.43676 22.7022 8.33591C22.7107 8.23504 22.7372 8.12479 22.7817 8.00514L21.7765 7.18464L22.5304 5.89234L23.7252 6.33338C23.8757 6.15731 24.062 6.00645 24.2842 5.88081C24.5064 5.75517 24.7304 5.66328 24.956 5.60514L25.1458 4.38464H26.6534L26.8432 5.60514C27.0688 5.66328 27.2927 5.75517 27.515 5.88081C27.7372 6.00645 27.9235 6.15731 28.0739 6.33338L29.2688 5.89234L30.0226 7.18464L29.0175 8.00514C29.0619 8.12479 29.0884 8.23504 29.097 8.33591C29.1056 8.43676 29.1098 8.54701 29.1098 8.66668C29.1098 8.78634 29.1056 8.8966 29.097 8.99744C29.0884 9.09831 29.0619 9.20857 29.0175 9.32821L30.0226 10.1487L29.2688 11.441L28.0739 11C27.9235 11.176 27.7372 11.3269 27.515 11.4525C27.2927 11.5782 27.0688 11.6701 26.8432 11.7282L26.6534 12.9487H25.1458ZM25.8996 10.4103C26.3919 10.4103 26.8056 10.2428 27.1406 9.90771C27.4757 9.57267 27.6432 9.15899 27.6432 8.66668C27.6432 8.17437 27.4757 7.76069 27.1406 7.42564C26.8056 7.0906 26.3919 6.92308 25.8996 6.92308C25.4073 6.92308 24.9936 7.0906 24.6586 7.42564C24.3235 7.76069 24.156 8.17437 24.156 8.66668C24.156 9.15899 24.3235 9.57267 24.6586 9.90771C24.9936 10.2428 25.4073 10.4103 25.8996 10.4103Z" fill="white"/>
</g>
</svg>
