<svg width="32" height="15" viewBox="0 0 32 15" fill="none" xmlns="http://www.w3.org/2000/svg">
<path d="M0.666687 14.7179V13.0923C0.666687 12.2051 1.12993 11.4765 2.05642 10.9064C2.98291 10.3363 4.19059 10.0513 5.67945 10.0513C5.92561 10.0513 6.17347 10.059 6.42305 10.0744C6.67263 10.0898 6.92391 10.1197 7.17689 10.1641C6.91707 10.5795 6.72433 11.0107 6.59869 11.4577C6.47306 11.9047 6.41025 12.3632 6.41025 12.8333V14.7179H0.666687ZM8.66665 14.7179V12.8846C8.66665 12.2604 8.84188 11.6898 9.19232 11.1728C9.54274 10.6559 10.0479 10.2051 10.7077 9.82051C11.3675 9.43591 12.147 9.14746 13.0461 8.95515C13.9453 8.76284 14.9282 8.66668 15.9948 8.66668C17.082 8.66668 18.0752 8.76284 18.9743 8.95515C19.8734 9.14746 20.6529 9.43591 21.3128 9.82051C21.9726 10.2051 22.4743 10.6559 22.8179 11.1728C23.1615 11.6898 23.3333 12.2604 23.3333 12.8846V14.7179H8.66665ZM25.5897 14.7179V12.8371C25.5897 12.3356 25.5303 11.863 25.4115 11.4193C25.2927 10.9757 25.1145 10.5573 24.8769 10.1641C25.1384 10.1197 25.3884 10.0898 25.6269 10.0744C25.8653 10.059 26.1008 10.0513 26.3333 10.0513C27.8221 10.0513 29.0277 10.3329 29.9499 10.8961C30.8721 11.4594 31.3333 12.1914 31.3333 13.0923V14.7179H25.5897ZM10.7692 12.7179H21.2513V12.5769C21.1145 12.0384 20.547 11.5855 19.5487 11.2179C18.5504 10.8504 17.3675 10.6666 16 10.6666C14.6324 10.6666 13.4495 10.8504 12.4512 11.2179C11.4529 11.5855 10.8923 12.0384 10.7692 12.5769V12.7179ZM5.67605 8.75641C5.04756 8.75641 4.51068 8.53297 4.06539 8.08608C3.6201 7.63919 3.39745 7.10197 3.39745 6.47441C3.39745 5.83852 3.6209 5.30135 4.06779 4.86288C4.51468 4.42441 5.0519 4.20518 5.67945 4.20518C6.31534 4.20518 6.85465 4.42441 7.29739 4.86288C7.74012 5.30135 7.96149 5.83979 7.96149 6.47821C7.96149 7.09788 7.74246 7.6325 7.30442 8.08208C6.86638 8.53164 6.32359 8.75641 5.67605 8.75641ZM26.3333 8.75641C25.7111 8.75641 25.1752 8.53164 24.7256 8.08208C24.276 7.6325 24.0513 7.09788 24.0513 6.47821C24.0513 5.83979 24.276 5.30135 24.7256 4.86288C25.1752 4.42441 25.7119 4.20518 26.3358 4.20518C26.9785 4.20518 27.5191 4.42441 27.9576 4.86288C28.3961 5.30135 28.6153 5.83852 28.6153 6.47441C28.6153 7.10197 28.3966 7.63919 27.9592 8.08608C27.5218 8.53297 26.9798 8.75641 26.3333 8.75641ZM16.0045 7.66668C15.0442 7.66668 14.2265 7.33015 13.5513 6.65708C12.8761 5.98401 12.5385 5.16671 12.5385 4.20518C12.5385 3.22442 12.875 2.40232 13.5481 1.73888C14.2211 1.07543 15.0384 0.743713 16 0.743713C16.9807 0.743713 17.8028 1.075 18.4663 1.73758C19.1297 2.40016 19.4615 3.22119 19.4615 4.20068C19.4615 5.16095 19.1302 5.97868 18.4676 6.65388C17.805 7.32908 16.984 7.66668 16.0045 7.66668ZM16.0064 5.66675C16.4141 5.66675 16.7585 5.52401 17.0397 5.23855C17.3209 4.95306 17.4615 4.60647 17.4615 4.19878C17.4615 3.79109 17.3214 3.44665 17.0413 3.16545C16.7612 2.88425 16.4141 2.74365 16 2.74365C15.5965 2.74365 15.2521 2.88371 14.9666 3.16385C14.6812 3.44398 14.5384 3.79109 14.5384 4.20518C14.5384 4.6086 14.6812 4.95306 14.9666 5.23855C15.2521 5.52401 15.5987 5.66675 16.0064 5.66675Z" fill="white"/>
</svg>
