<svg width="123" height="22" viewBox="0 0 123 22" fill="none" xmlns="http://www.w3.org/2000/svg">
<g clip-path="url(#clip0_1_227)">
<path d="M11.1112 22C17.2478 22 22.2223 17.0753 22.2223 11V3.3C22.2223 2.42479 21.8711 1.58542 21.246 0.966548C20.6209 0.347678 19.773 0 18.889 0L11.6667 0V4.8257C11.6667 5.9268 11.7345 7.0675 12.3178 8.0047C12.7354 8.67636 13.2941 9.25125 13.9559 9.69034C14.6177 10.1294 15.3671 10.4225 16.1534 10.5496L16.3662 10.5837C16.4539 10.6133 16.53 10.6694 16.584 10.7441C16.6379 10.8187 16.6669 10.9082 16.6669 11C16.6669 11.0918 16.6379 11.1813 16.584 11.2559C16.53 11.3306 16.4539 11.3867 16.3662 11.4164L16.1534 11.4504C15.0046 11.6362 13.9438 12.1746 13.1207 12.9894C12.2976 13.8043 11.7538 14.8545 11.5662 15.9918L11.5317 16.2024C11.5017 16.2893 11.4451 16.3647 11.3697 16.4181C11.2943 16.4714 11.2039 16.5001 11.1112 16.5001C11.0185 16.5001 10.9281 16.4714 10.8527 16.4181C10.7773 16.3647 10.7206 16.2893 10.6906 16.2024L10.6562 15.9918C10.5278 15.2134 10.2318 14.4715 9.78824 13.8163C9.34471 13.1611 8.76404 12.6081 8.08562 12.1946C7.13895 11.6171 5.98673 11.55 4.87451 11.55H0.0133972C0.303953 17.3696 5.16117 22 11.1112 22Z" fill="#0E1534"/>
<path d="M0 10.45H4.87444C5.98667 10.45 7.13889 10.3829 8.08556 9.8054C8.82556 9.35401 9.4485 8.73731 9.90444 8.0047C10.4878 7.0675 10.5556 5.9268 10.5556 4.8257V0H3.33333C2.44928 0 1.60143 0.347678 0.976311 0.966547C0.351189 1.58542 0 2.42479 0 3.3L0 10.45ZM25.8083 1.1C25.8083 1.39174 25.6913 1.67153 25.4829 1.87782C25.2745 2.08411 24.9919 2.2 24.6972 2.2C24.4025 2.2 24.1199 2.08411 23.9115 1.87782C23.7032 1.67153 23.5861 1.39174 23.5861 1.1C23.5861 0.808262 23.7032 0.528473 23.9115 0.322183C24.1199 0.115893 24.4025 0 24.6972 0C24.9919 0 25.2745 0.115893 25.4829 0.322183C25.6913 0.528473 25.8083 0.808262 25.8083 1.1ZM117.617 6.6572C120.723 6.6572 122.222 8.80495 122.222 11.2926V15.9648H118.972V11.847C118.972 10.7195 118.556 9.7889 117.364 9.7889C116.173 9.7889 115.776 10.7195 115.776 11.847V15.9643H112.525V11.847C112.525 10.7195 112.128 9.7889 110.936 9.7889C109.744 9.7889 109.328 10.7195 109.328 11.847V15.9643H106.078V11.292C106.078 8.8044 107.577 6.65665 110.683 6.65665C112.381 6.65665 113.608 7.31885 114.168 8.4106C114.764 7.31885 116.064 6.6561 117.617 6.6561V6.6572ZM100.237 13.101C101.284 13.101 101.736 12.1522 101.736 11.0242V7.0147H104.986V11.418C104.986 14.0492 103.433 16.2332 100.237 16.2332C97.0406 16.2332 95.4878 14.0497 95.4878 11.418V7.0147H98.7383V11.0242C98.7383 12.1517 99.1894 13.101 100.237 13.101ZM90.7083 16.2508C88.6678 16.2508 87.3494 15.5529 86.5728 14.1927L88.9206 12.8859C89.2456 13.4585 89.7328 13.745 90.5455 13.745C91.2139 13.745 91.5206 13.5124 91.5206 13.2258C91.5206 12.1341 86.7533 13.244 86.7533 9.77185C86.7533 8.08885 88.1978 6.7287 90.6539 6.7287C92.8028 6.7287 93.9767 7.76655 94.5005 8.7692L92.1528 10.0936C91.9544 9.5568 91.34 9.2345 90.7261 9.2345C90.2567 9.2345 90.0039 9.4314 90.0039 9.6998C90.0039 10.8097 94.7711 9.78945 94.7711 13.1543C94.7711 15.0337 92.9111 16.2508 90.7083 16.2508ZM79.3517 20.0816H76.1011V11.4719C76.1011 8.7329 78.1778 6.7463 81.0672 6.7463C83.8844 6.7463 86.0333 8.87645 86.0333 11.4719C86.0333 14.3357 84.1189 16.2332 81.2478 16.2332C80.5794 16.2332 79.9117 16.0363 79.3517 15.7316V20.0816ZM81.0672 13.2082C82.0967 13.2082 82.7828 12.4206 82.7828 11.4895C82.7828 10.5413 82.0967 9.7713 81.0672 9.7713C80.0378 9.7713 79.3517 10.5413 79.3517 11.49C79.3517 12.4206 80.0378 13.2082 81.0672 13.2082ZM72.845 6.0665C71.7794 6.0665 70.895 5.18925 70.895 4.13325C70.895 3.07725 71.7794 2.2 72.845 2.2C73.9106 2.2 74.7956 3.07725 74.7956 4.13325C74.7956 5.18925 73.9106 6.0665 72.845 6.0665ZM71.22 7.0147H74.4706V15.9648H71.22V7.0147ZM64.9833 16.2332C62.1661 16.2332 60.0172 14.0855 60.0172 11.4719C60.0172 8.87645 62.1661 6.7287 64.9833 6.7287C67.8006 6.7287 69.9494 8.87645 69.9494 11.4719C69.9494 14.0855 67.8006 16.2332 64.9833 16.2332ZM64.9833 13.2082C66.0128 13.2082 66.6989 12.4206 66.6989 11.4895C66.6989 10.5413 66.0128 9.7537 64.9833 9.7537C63.9539 9.7537 63.2678 10.5413 63.2678 11.4895C63.2678 12.4206 63.9539 13.2082 64.9833 13.2082ZM53.8794 20.35C51.6406 20.35 50.015 19.3655 49.1844 17.611L51.875 16.1793C52.1639 16.7882 52.7056 17.4146 53.825 17.4146C54.9994 17.4146 55.7756 16.6804 55.8661 15.3917C55.4328 15.7679 54.7461 16.0539 53.7172 16.0539C51.2067 16.0539 49.1839 14.1388 49.1839 11.4537C49.1839 8.85885 51.3333 6.7463 54.1506 6.7463C57.04 6.7463 59.1167 8.73345 59.1167 11.4719V15.0161C59.1167 18.238 56.8589 20.35 53.8794 20.35ZM54.0961 13.0295C55.0711 13.0295 55.8117 12.3667 55.8117 11.3822C55.8117 10.4159 55.0717 9.7713 54.0961 9.7713C53.1389 9.7713 52.3806 10.4159 52.3806 11.3828C52.3806 12.3673 53.1389 13.0289 54.0961 13.0289V13.0295ZM43.6706 16.2332C40.8533 16.2332 38.7039 14.0855 38.7039 11.4719C38.7039 8.87645 40.8533 6.7287 43.6706 6.7287C46.4872 6.7287 48.6367 8.87645 48.6367 11.4719C48.6367 14.0855 46.4878 16.2332 43.6706 16.2332ZM43.6706 13.2082C44.7 13.2082 45.3861 12.4206 45.3861 11.4895C45.3861 10.5413 44.7 9.7537 43.6706 9.7537C42.6411 9.7537 41.955 10.5413 41.955 11.4895C41.955 12.4206 42.6411 13.2082 43.6706 13.2082ZM32.785 3.883V12.9217H38.1667V15.9648H32.3333C30.275 15.9648 29.4444 14.8907 29.4444 13.1901V3.883H32.785Z" fill="#0E1534"/>
</g>
<defs>
<clipPath id="clip0_1_227">
<rect width="122.222" height="22" fill="white"/>
</clipPath>
</defs>
</svg>
