<svg width="217" height="39" viewBox="0 0 217 39" fill="none" xmlns="http://www.w3.org/2000/svg">
<path d="M19.7274 39C30.6228 39 39.4547 30.2698 39.4547 19.5V5.85C39.4547 4.29848 38.8311 2.81051 37.7213 1.71343C36.6114 0.616337 35.1061 0 33.5365 0L20.7138 0V8.55465C20.7138 10.5066 20.8341 12.5288 21.8698 14.1902C22.6112 15.3808 23.6031 16.3999 24.7781 17.1783C25.953 17.9567 27.2837 18.4762 28.6796 18.7015L29.0574 18.7619C29.2131 18.8145 29.3483 18.914 29.4441 19.0463C29.5398 19.1787 29.5913 19.3373 29.5913 19.5C29.5913 19.6627 29.5398 19.8213 29.4441 19.9537C29.3483 20.086 29.2131 20.1855 29.0574 20.2381L28.6796 20.2985C26.64 20.6279 24.7565 21.5822 23.2952 23.0267C21.8338 24.4712 20.8684 26.333 20.5352 28.3491L20.4741 28.7225C20.4208 28.8765 20.3202 29.0101 20.1863 29.1047C20.0525 29.1994 19.892 29.2502 19.7274 29.2502C19.5628 29.2502 19.4023 29.1994 19.2684 29.1047C19.1346 29.0101 19.0339 28.8765 18.9807 28.7225L18.9196 28.3491C18.6916 26.9692 18.166 25.654 17.3786 24.4925C16.5911 23.3311 15.5602 22.3506 14.3557 21.6177C12.6749 20.594 10.6292 20.475 8.65447 20.475H0.0237885C0.539657 30.7915 9.16343 39 19.7274 39Z" fill="white"/>
<path d="M0 18.525H8.65436C10.6291 18.525 12.6748 18.406 14.3555 17.3823C15.6694 16.5821 16.7754 15.4889 17.5849 14.1901C18.6206 12.5287 18.7409 10.5066 18.7409 8.55465V0H5.91818C4.34858 0 2.84327 0.616337 1.7334 1.71343C0.623521 2.81051 0 4.29848 0 5.85L0 18.525ZM45.8215 1.95C45.8215 2.46717 45.6137 2.96316 45.2437 3.32886C44.8738 3.69455 44.372 3.9 43.8488 3.9C43.3256 3.9 42.8238 3.69455 42.4539 3.32886C42.0839 2.96316 41.8761 2.46717 41.8761 1.95C41.8761 1.43283 42.0839 0.936838 42.4539 0.571142C42.8238 0.205446 43.3256 0 43.8488 0C44.372 0 44.8738 0.205446 45.2437 0.571142C45.6137 0.936838 45.8215 1.43283 45.8215 1.95ZM208.824 11.8014C214.339 11.8014 217 15.6088 217 20.0187V28.3013H211.229V21.0015C211.229 19.0027 210.491 17.353 208.375 17.353C206.259 17.353 205.554 19.0027 205.554 21.0015V28.3003H199.783V21.0015C199.783 19.0027 199.078 17.353 196.961 17.353C194.845 17.353 194.107 19.0027 194.107 21.0015V28.3003H188.337V20.0177C188.337 15.6078 190.997 11.8004 196.512 11.8004C199.527 11.8004 201.706 12.9743 202.701 14.9097C203.758 12.9743 206.067 11.7994 208.824 11.7994V11.8014ZM177.967 23.2245C179.826 23.2245 180.628 21.5426 180.628 19.5429V12.4351H186.398V20.241C186.398 24.9054 183.641 28.7771 177.967 28.7771C172.291 28.7771 169.534 24.9064 169.534 20.241V12.4351H175.305V19.5429C175.305 21.5416 176.106 23.2245 177.967 23.2245ZM161.049 28.8083C157.426 28.8083 155.085 27.571 153.706 25.1599L157.874 22.8433C158.451 23.8582 159.316 24.3662 160.76 24.3662C161.946 24.3662 162.491 23.9538 162.491 23.4458C162.491 21.5104 154.027 23.478 154.027 17.3228C154.027 14.3393 156.591 11.9281 160.952 11.9281C164.767 11.9281 166.851 13.768 167.781 15.5454L163.613 17.8932C163.261 16.9416 162.17 16.3702 161.08 16.3702C160.247 16.3702 159.798 16.7193 159.798 17.1951C159.798 19.1626 168.262 17.354 168.262 23.3191C168.262 26.6506 164.959 28.8083 161.049 28.8083ZM140.885 35.5992H135.114V20.3365C135.114 15.481 138.801 11.9593 143.931 11.9593C148.933 11.9593 152.748 15.7355 152.748 20.3365C152.748 25.4134 149.349 28.7771 144.252 28.7771C143.065 28.7771 141.88 28.4281 140.885 27.8879V35.5992ZM143.931 23.4146C145.759 23.4146 146.977 22.0184 146.977 20.3677C146.977 18.6868 145.759 17.3218 143.931 17.3218C142.103 17.3218 140.885 18.6868 140.885 20.3687C140.885 22.0184 142.103 23.4146 143.931 23.4146ZM129.333 10.7542C127.441 10.7542 125.871 9.19912 125.871 7.32712C125.871 5.45512 127.441 3.9 129.333 3.9C131.225 3.9 132.796 5.45512 132.796 7.32712C132.796 9.19912 131.225 10.7542 129.333 10.7542ZM126.448 12.4351H132.219V28.3013H126.448V12.4351ZM115.375 28.7771C110.373 28.7771 106.558 24.9697 106.558 20.3365C106.558 15.7355 110.373 11.9281 115.375 11.9281C120.377 11.9281 124.192 15.7355 124.192 20.3365C124.192 24.9697 120.377 28.7771 115.375 28.7771ZM115.375 23.4146C117.203 23.4146 118.421 22.0184 118.421 20.3677C118.421 18.6868 117.203 17.2906 115.375 17.2906C113.547 17.2906 112.329 18.6868 112.329 20.3677C112.329 22.0184 113.547 23.4146 115.375 23.4146ZM95.6605 36.075C91.6855 36.075 88.7994 34.3297 87.3247 31.2195L92.1017 28.6816C92.6146 29.7609 93.5763 30.8714 95.5638 30.8714C97.649 30.8714 99.027 29.5698 99.1877 27.2854C98.4184 27.9523 97.1992 28.4593 95.3725 28.4593C90.9151 28.4593 87.3238 25.0643 87.3238 20.3044C87.3238 15.7043 91.14 11.9593 96.1419 11.9593C101.272 11.9593 104.959 15.482 104.959 20.3365V26.6194C104.959 32.331 100.95 36.075 95.6605 36.075ZM96.0452 23.0977C97.7763 23.0977 99.0911 21.9229 99.0911 20.1776C99.0911 18.4645 97.7772 17.3218 96.0452 17.3218C94.3457 17.3218 92.9993 18.4645 92.9993 20.1786C92.9993 21.9238 94.3457 23.0968 96.0452 23.0968V23.0977ZM77.5351 28.7771C72.5332 28.7771 68.717 24.9697 68.717 20.3365C68.717 15.7355 72.5332 11.9281 77.5351 11.9281C82.5359 11.9281 86.3522 15.7355 86.3522 20.3365C86.3522 24.9697 82.5369 28.7771 77.5351 28.7771ZM77.5351 23.4146C79.3628 23.4146 80.581 22.0184 80.581 20.3677C80.581 18.6868 79.3628 17.2906 77.5351 17.2906C75.7074 17.2906 74.4892 18.6868 74.4892 20.3677C74.4892 22.0184 75.7074 23.4146 77.5351 23.4146ZM58.2083 6.8835V22.9066H67.7632V28.3013H57.4064C53.7519 28.3013 52.2773 26.3971 52.2773 23.3824V6.8835H58.2083Z" fill="white"/>
</svg>
